<?xml version="1.0" encoding="UTF-8"?>
<svg version="1.1" xmlns="http://www.w3.org/2000/svg" width="1152" height="1152">
<path d="M0 0 C3.57052209 1.93341549 5.69451966 4.08355899 7 8 C7.09633254 9.71410993 7.13493449 11.43172316 7.14044189 13.14852905 C7.14615204 14.21402481 7.15186218 15.27952057 7.15774536 16.37730408 C7.15942215 18.13065819 7.15942215 18.13065819 7.16113281 19.91943359 C7.16858017 21.76609871 7.16858017 21.76609871 7.17617798 23.65007019 C7.18828737 27.02823556 7.19574483 30.40633902 7.20018864 33.78451872 C7.20312073 35.89536652 7.20722578 38.00620891 7.21169281 40.11705399 C7.22536448 46.72237573 7.235033 53.32768508 7.2388947 59.93302 C7.24337613 67.55628625 7.26092917 75.17937326 7.2898953 82.80258501 C7.3115129 88.69652148 7.321599 94.59040753 7.32293582 100.48438323 C7.32398371 104.00404669 7.32988804 107.52354159 7.34775543 111.0431633 C7.36729978 114.96942682 7.36294681 118.89546631 7.35644531 122.82177734 C7.3656601 123.98663162 7.37487488 125.1514859 7.3843689 126.35163879 C7.37879974 127.4227742 7.37323059 128.49390961 7.36749268 129.59750366 C7.36969252 130.98955804 7.36969252 130.98955804 7.3719368 132.40973473 C6.76921003 136.60728176 4.65219788 139.27107296 1.875 142.375 C-1.71378881 144.40344585 -3.83895333 144.32316509 -7.83984375 143.6953125 C-11.11851891 142.63997041 -12.89699342 140.64571796 -15 138 C-15.74765625 138.34933594 -16.4953125 138.69867187 -17.265625 139.05859375 C-18.25046875 139.51363281 -19.2353125 139.96867188 -20.25 140.4375 C-21.22453125 140.88996094 -22.1990625 141.34242188 -23.203125 141.80859375 C-31.80804157 145.47409592 -43.10624483 145.38963526 -51.9375 142.375 C-63.87837033 137.24471589 -72.34293015 129.28776045 -77.9921875 117.5546875 C-82.86439969 105.20419614 -82.53755562 92.32822628 -77.546875 80.08984375 C-71.97114376 68.9524614 -62.63865708 60.43788556 -51 56 C-38.74377956 52.4297097 -28.23492944 54.38253528 -17 60 C-16.99120064 59.06158768 -16.99120064 59.06158768 -16.98222351 58.10421753 C-16.91820272 51.58252917 -16.83376028 45.0613303 -16.73754883 38.54003906 C-16.70433053 36.1074876 -16.67628901 33.67485963 -16.65356445 31.2421875 C-16.61996242 27.74185642 -16.56764166 24.24222445 -16.51171875 20.7421875 C-16.50532883 19.65759247 -16.4989389 18.57299744 -16.49235535 17.45553589 C-16.36600914 10.94100835 -15.79679288 6.22706871 -11.375 1.125 C-7.60823446 -0.65925736 -4.07801406 -0.76903725 0 0 Z M-55.4375 83.375 C-59.98641927 91.01718437 -60.98592782 97.0491047 -60 106 C-58.3339306 111.79829801 -54.69324722 116.28706551 -50 120 C-44.76017037 122.89569532 -38.68581324 123.5679912 -32.875 122.3125 C-25.57886591 120.15649952 -20.9081493 115.54079452 -16.88671875 109.26171875 C-14.58043334 103.37916699 -15.05999763 95.239814 -16.8046875 89.2265625 C-19.71520202 83.34531592 -24.26917869 80.00492503 -30 77 C-39.41841292 73.86052903 -48.40403946 76.5218846 -55.4375 83.375 Z " fill="#232C59" transform="translate(880,508)"/>
<path d="M0 0 C3.60729114 2.14902451 5.43897199 4.14984182 7 8 C7.25447559 10.46163082 7.25447559 10.46163082 7.26069641 13.26878357 C7.26778122 14.33565399 7.27486603 15.40252441 7.28216553 16.50172424 C7.27968811 17.66703171 7.27721069 18.83233917 7.2746582 20.03295898 C7.27976913 21.26421509 7.28488007 22.49547119 7.29014587 23.76403809 C7.30166526 27.13807731 7.30411531 30.5118709 7.30158257 33.88591266 C7.30051242 36.70401347 7.30539736 39.52209165 7.310188 42.34018761 C7.32128092 48.98926015 7.3217218 55.6382762 7.31567383 62.28735352 C7.30963323 69.14362694 7.32194759 75.99969519 7.3432439 82.85593361 C7.36086448 88.74565356 7.36686055 94.63530823 7.36360615 100.52505356 C7.36179388 104.04133531 7.36442379 107.5574707 7.37832069 111.07372856 C7.39323904 114.99511634 7.38392486 118.91624316 7.37231445 122.83764648 C7.37995819 124.00092972 7.38760193 125.16421295 7.39547729 126.36274719 C7.38846298 127.43243744 7.38144867 128.50212769 7.3742218 129.60423279 C7.37438954 130.53097022 7.37455729 131.45770765 7.37473011 132.41252804 C6.76022849 136.65559703 4.68815961 139.29272485 1.75 142.3125 C-1.92762971 144.56922732 -3.73880122 144.72223708 -8 144 C-10.89093885 142.2451494 -13.45472167 140.22133382 -16 138 C-16.67546875 138.34933594 -17.3509375 138.69867187 -18.046875 139.05859375 C-18.93890625 139.51363281 -19.8309375 139.96867188 -20.75 140.4375 C-21.63171875 140.88996094 -22.5134375 141.34242188 -23.421875 141.80859375 C-31.75237084 145.65829259 -43.32780784 145.31400256 -51.9375 142.375 C-64.02158963 137.18318305 -73.89767817 128.32072286 -79 116 C-80.65895936 110.41192636 -81.35748547 105.37819491 -81.3125 99.5625 C-81.30831055 98.81750244 -81.30412109 98.07250488 -81.29980469 97.30493164 C-81.18532037 91.73112861 -80.40132467 87.07410343 -78 82 C-77.74476563 81.35289062 -77.48953125 80.70578125 -77.2265625 80.0390625 C-72.82644277 69.82594055 -63.96798179 61.65516355 -54 57 C-42.9292362 53.35182356 -33.38873879 52.94719103 -22.6640625 57.5625 C-21.59881348 58.01753906 -20.53356445 58.47257813 -19.43603516 58.94140625 C-18.63214355 59.29074219 -17.82825195 59.64007812 -17 60 C-16.99635437 59.36186371 -16.99270874 58.72372742 -16.98895264 58.06625366 C-16.94708986 51.41473178 -16.87771724 44.76389748 -16.79248047 38.11279297 C-16.76428304 35.63174319 -16.74306245 33.15060378 -16.72900391 30.66943359 C-16.70755838 27.09946853 -16.66089658 23.53057972 -16.609375 19.9609375 C-16.60814636 18.85446869 -16.60691772 17.74799988 -16.60565186 16.60800171 C-16.4891585 10.46021082 -16.19129521 6.63594193 -12 2 C-7.97297943 -0.68468038 -4.7315637 -0.68187737 0 0 Z M-56.5625 85.125 C-60.99588206 91.58040617 -60.58239996 98.40347875 -60 106 C-58.36289758 112.54840969 -53.6926357 117.55020575 -48 121 C-41.30238014 123.36902711 -35.61724826 123.4674485 -29 121 C-22.67898038 117.52963629 -18.27739787 112.92248693 -16 106 C-14.91588584 97.29285152 -15.92429562 90.24301617 -21 83 C-25.6698587 78.20725028 -31.20357343 75.87291749 -37.8125 75.5 C-45.57136477 75.78342885 -51.82158186 78.99235649 -56.5625 85.125 Z " fill="#232C59" transform="translate(786,508)"/>
<path d="M0 0 C3.36849012 2.76964744 6.73225676 5.79158041 7.2784729 10.29692078 C7.29179657 11.19626846 7.30512024 12.09561615 7.31884766 13.0222168 C7.33871735 14.04304855 7.35858704 15.06388031 7.37905884 16.11564636 C7.39061005 17.21572525 7.40216125 18.31580414 7.4140625 19.44921875 C7.43342865 20.5769722 7.4527948 21.70472565 7.4727478 22.86665344 C7.53259307 26.47352503 7.57894922 30.08042844 7.625 33.6875 C7.66317518 36.1308734 7.70222664 38.57423328 7.7421875 41.01757812 C7.8382987 47.01159884 7.92333178 53.00570079 8 59 C8.54142639 58.72516281 9.08285278 58.45032562 9.64068604 58.16716003 C10.35512878 57.80673111 11.06957153 57.44630219 11.80566406 57.07495117 C12.51209045 56.71761398 13.21851685 56.36027679 13.9463501 55.99211121 C22.09939818 52.05340171 31.65760503 50.74347477 40.4375 53.1875 C50.28664862 56.74590208 56.83555531 63.80177725 61.2734375 73.140625 C62.9638745 77.46668958 63.28987338 81.75355568 63.54296875 86.359375 C63.58439499 87.09750427 63.62582123 87.83563354 63.66850281 88.59613037 C64.12933146 97.51950652 64.25758929 106.44533628 64.29516602 115.37939453 C64.30685218 117.31468926 64.32755495 119.24994789 64.35668945 121.18505859 C64.39918095 124.02462976 64.41548646 126.86327648 64.42578125 129.703125 C64.44328934 130.56456116 64.46079742 131.42599731 64.47883606 132.3135376 C64.46395697 136.4109478 64.33245825 138.47226681 62.09838867 142.01855469 C59.6777326 144.30430742 58.58796484 144.90428479 55.3125 145.4375 C50.69172357 144.82720877 48.04471344 142.44732017 45 139 C44.07649117 136.22947352 43.86656599 134.53324972 43.84228516 131.67138672 C43.83202301 130.7997287 43.82176086 129.92807068 43.81118774 129.02999878 C43.80023575 127.6190947 43.80023575 127.6190947 43.7890625 126.1796875 C43.76097849 124.17967953 43.73231393 122.17967965 43.703125 120.1796875 C43.66199453 117.03320678 43.62509988 113.88687446 43.59863281 110.74023438 C43.57084497 107.69890247 43.52495851 104.65825234 43.4765625 101.6171875 C43.47330963 100.68873016 43.47005676 99.76027283 43.46670532 98.80368042 C43.2988384 89.77958338 41.48566451 82.48566451 35 76 C29.98270662 74.32756887 25.67486037 74.34319201 20.8125 76.25 C13.66333646 80.69836843 10.63212848 85.10361456 8 93 C7.89302096 95.99964816 7.83880997 98.98026965 7.82421875 101.98046875 C7.8010105 103.8027458 7.77689276 105.62501145 7.75195312 107.44726562 C7.71693068 110.31298341 7.68754332 113.1782843 7.67407227 116.04418945 C7.65850654 118.81512811 7.61823451 121.58485431 7.57421875 124.35546875 C7.57612717 125.20159225 7.57803558 126.04771576 7.58000183 126.91947937 C7.46362949 132.63941964 6.37272261 137.28008945 3 142 C-0.54129184 144.36086122 -1.82750218 144.57269578 -6 144 C-9.72104817 141.42388973 -12.34497661 139.22552779 -14 135 C-14.25726891 132.54116249 -14.25726891 132.54116249 -14.26742554 129.73794556 C-14.27595551 128.67252029 -14.28448547 127.60709503 -14.29327393 126.50938416 C-14.29236755 125.34564774 -14.29146118 124.18191132 -14.29052734 122.98291016 C-14.29724457 121.75326035 -14.30396179 120.52361053 -14.31088257 119.25669861 C-14.32662733 115.88672983 -14.33323769 112.51700749 -14.33451414 109.14701891 C-14.33593664 107.04033765 -14.3402081 104.93368215 -14.34550858 102.82700729 C-14.36400712 95.47384758 -14.37217943 88.12076034 -14.37060547 80.76757812 C-14.36940416 73.91922552 -14.3905046 67.07118814 -14.4220928 60.22291529 C-14.44826644 54.33827346 -14.45897231 48.45373451 -14.45769465 42.56903493 C-14.45718532 39.0565777 -14.46285183 35.54440062 -14.48405075 32.0320015 C-14.50705734 28.11316932 -14.4979055 24.1947676 -14.48583984 20.27587891 C-14.49707886 19.11619095 -14.50831787 17.95650299 -14.51989746 16.76167297 C-14.47125979 10.55184543 -14.26920658 6.66626061 -10 2 C-6.24952518 -0.50031654 -4.44143734 -0.53603554 0 0 Z " fill="#242D5B" transform="translate(470,508)"/>
<path d="M0 0 C3.10966213 2.4589619 5.83848414 5.2466524 8.625 8.0625 C9.48480469 8.89910156 10.34460938 9.73570312 11.23046875 10.59765625 C12.08253906 11.43167969 12.93460938 12.26570312 13.8125 13.125 C14.67230469 13.96160156 15.53210938 14.79820312 16.41796875 15.66015625 C19.84833905 19.39409914 20.87324329 22.06198481 20.8996582 27.11889648 C20.90919022 28.12351425 20.91872223 29.12813202 20.92854309 30.16319275 C20.92763168 31.24242508 20.92672028 32.32165741 20.92578125 33.43359375 C20.93006638 34.54807388 20.9343515 35.66255402 20.93876648 36.81080627 C20.94450753 39.16691407 20.94501171 41.52303959 20.94067383 43.87915039 C20.937515 47.48289241 20.96097291 51.08581267 20.98632812 54.68945312 C20.98860124 56.97916563 20.98930456 59.26888034 20.98828125 61.55859375 C20.997491 62.63580185 21.00670074 63.71300995 21.01618958 64.82286072 C20.95946939 73.99974682 20.95946939 73.99974682 17.625 78.0625 C17.233125 78.64 16.84125 79.2175 16.4375 79.8125 C13.42319413 81.89133164 10.19716704 82.29839782 6.625 82.0625 C1.00456204 79.20118613 1.00456204 79.20118613 -0.375 75.0625 C-1.19484375 75.48402344 -2.0146875 75.90554688 -2.859375 76.33984375 C-3.93703125 76.88769531 -5.0146875 77.43554688 -6.125 78 C-7.19234375 78.54527344 -8.2596875 79.09054687 -9.359375 79.65234375 C-18.10810022 83.74339272 -29.94421583 83.38599435 -38.9765625 80.16015625 C-51.42776999 74.46180233 -60.34522461 65.87111831 -65.375 53.0625 C-69.43162316 41.23245234 -68.09154697 28.50288237 -63.12109375 17.21484375 C-57.5498343 6.17858865 -49.06416583 -1.94274348 -37.26953125 -6.0078125 C-24.26450095 -9.45717537 -11.06786576 -8.04182006 0 0 Z M-41.30078125 21.29296875 C-46.17627225 28.42584699 -47.295781 34.46156838 -46.375 43.0625 C-44.2754957 49.63250052 -41.09230999 54.25096001 -35.375 58.0625 C-29.30887848 60.93753574 -22.49730675 61.20796627 -16.02734375 59.41015625 C-9.86995086 56.64585463 -4.80839489 51.38932672 -2.375 45.0625 C-1.58278333 37.0666387 -1.07319582 28.60812921 -6.375 22.0625 C-11.53499281 16.50270145 -16.51962107 14.08772976 -24.125 13.625 C-30.92902474 13.80944645 -36.79855423 16.07842183 -41.30078125 21.29296875 Z " fill="#232C5A" transform="translate(678.375,570.9375)"/>
<path d="M0 0 C8.64113433 6.61928919 14.78036879 13.73563762 18.24609375 24.1328125 C18.38829654 25.79549124 18.46629942 27.4643298 18.49609375 29.1328125 C18.521875 29.9990625 18.54765625 30.8653125 18.57421875 31.7578125 C18.17000866 34.68352364 17.48327541 35.27095782 15.24609375 37.1328125 C13.21733093 38.06303406 13.21733093 38.06303406 10.86987305 38.8503418 C9.98853195 39.15042648 9.10719086 39.45051117 8.19914246 39.75968933 C7.24912857 40.07231216 6.29911469 40.384935 5.3203125 40.70703125 C4.33996536 41.03572708 3.35961823 41.36442291 2.3495636 41.70307922 C0.27561357 42.39575645 -1.79985776 43.08389284 -3.87670898 43.76782227 C-7.04808936 44.81426856 -10.21263319 45.87968629 -13.37695312 46.94726562 C-15.39414762 47.61834177 -17.4117142 48.28830069 -19.4296875 48.95703125 C-20.37362869 49.27572678 -21.31756989 49.5944223 -22.29011536 49.92277527 C-30.89967173 52.73169614 -30.89967173 52.73169614 -35.75390625 52.1328125 C-39.22445787 49.43349458 -41.42227715 46.60998138 -42.01171875 42.20703125 C-42.12890625 40.0703125 -42.12890625 40.0703125 -41.75390625 36.1328125 C-38.66045197 33.03935822 -34.70980008 31.85198373 -30.65234375 30.46875 C-29.63583237 30.11244003 -29.63583237 30.11244003 -28.5987854 29.74893188 C-26.44442303 28.99520146 -24.28685595 28.25120258 -22.12890625 27.5078125 C-19.96455706 26.75528789 -17.80090881 26.00079035 -15.63760376 25.24526978 C-14.29394177 24.77675724 -12.94954137 24.31035596 -11.6043396 23.84628296 C-8.11785784 22.63902422 -8.11785784 22.63902422 -4.75390625 21.1328125 C-6.16557511 20.14645413 -7.58346809 19.16899995 -9.00390625 18.1953125 C-9.7928125 17.65003906 -10.58171875 17.10476563 -11.39453125 16.54296875 C-16.73855877 13.34893906 -22.68730921 13.64783745 -28.75390625 14.1328125 C-35.28198848 16.42973032 -39.62556472 21.03254651 -42.75390625 27.1328125 C-45.23303825 35.03504574 -44.51032643 43.81681512 -40.75390625 51.1328125 C-40.23828125 52.2053125 -39.72265625 53.2778125 -39.19140625 54.3828125 C-35.01001461 59.10028 -29.61486469 60.93653744 -23.39453125 61.36328125 C-19.42780553 61.11216879 -16.11175791 60.23537883 -12.31640625 59.0703125 C-6.74181596 57.48080372 -2.3805775 56.32803116 3.24609375 58.1328125 C6.17828235 60.69847752 7.09392713 62.23883362 7.74609375 66.0703125 C6.99033745 70.69931985 5.15144991 73.63249952 1.4453125 76.55078125 C-8.81864819 83.34691833 -20.92856994 83.3790089 -32.796875 81.703125 C-39.3615446 80.01238339 -44.53649551 76.35479619 -49.75390625 72.1328125 C-50.45515625 71.58109375 -51.15640625 71.029375 -51.87890625 70.4609375 C-59.60905452 63.63666598 -65.4201179 53.591507 -66.39453125 43.2578125 C-67.07285919 27.82242207 -62.11415337 15.42513563 -51.76171875 4.01953125 C-37.42046347 -9.45678451 -16.14784285 -10.9484665 0 0 Z " fill="#232C5A" transform="translate(357.75390625,569.8671875)"/>
<path d="M0 0 C4.48271513 2.57517678 7.27092273 5.6877682 8.9375 10.6875 C9.08689774 12.60515594 9.18560283 14.52696522 9.25390625 16.44921875 C9.29580078 17.56748047 9.33769531 18.68574219 9.38085938 19.83789062 C9.42017578 21.00513672 9.45949219 22.17238281 9.5 23.375 C9.54318359 24.55384766 9.58636719 25.73269531 9.63085938 26.94726562 C9.73701176 29.86055883 9.83906242 32.77393757 9.9375 35.6875 C10.95070313 35.65269531 11.96390625 35.61789062 13.0078125 35.58203125 C14.3593583 35.55387405 15.71092219 35.52657597 17.0625 35.5 C17.72765625 35.47486328 18.3928125 35.44972656 19.078125 35.42382812 C23.8131064 35.35419605 26.91434319 36.21724574 30.9375 38.6875 C33.23455092 41.14296822 34.7436821 43.29568678 34.9375 46.6875 C33.42176376 51.23470872 32.25704236 54.44323073 27.9375 56.6875 C24.67888337 57.05007261 21.46089408 56.96928535 18.1875 56.875 C16.85525391 56.85469727 16.85525391 56.85469727 15.49609375 56.83398438 C13.30927422 56.79871309 11.12370034 56.74942752 8.9375 56.6875 C8.95700671 61.95354574 9.00898486 67.21794042 9.09008789 72.48339844 C9.11317653 74.27171821 9.12764204 76.0601722 9.13305664 77.84863281 C9.1424137 80.43118038 9.18354721 83.01164358 9.23046875 85.59375 C9.2265361 86.38366333 9.22260345 87.17357666 9.21855164 87.98742676 C9.37133429 93.90008816 11.0856168 98.15135926 14.9375 102.6875 C17.57909064 104.23497787 17.57909064 104.23497787 20.4375 104.8125 C25.7911012 106.45976191 28.10711816 107.80753131 30.9375 112.6875 C31.6924471 116.71388453 31.13624083 118.31840989 29.1875 121.9375 C26.37041383 125.38060532 24.59407143 126.50759027 20.16796875 126.98828125 C13.90787284 127.01238945 9.4249641 126.7604799 3.9375 123.6875 C2.926875 123.15125 1.91625 122.615 0.875 122.0625 C-6.32354807 116.24239731 -10.16681771 107.61629792 -12.0625 98.6875 C-12.14562165 97.25288424 -12.18035375 95.81494495 -12.17602539 94.37792969 C-12.17594986 93.53736023 -12.17587433 92.69679077 -12.17579651 91.83074951 C-12.17063522 90.93269592 -12.16547394 90.03464233 -12.16015625 89.109375 C-12.1587413 88.1828009 -12.15732635 87.25622681 -12.15586853 86.30157471 C-12.15027824 83.34685008 -12.1377275 80.39220167 -12.125 77.4375 C-12.11998375 75.43229276 -12.11542106 73.42708433 -12.11132812 71.421875 C-12.10031199 66.51038737 -12.083054 61.5989566 -12.0625 56.6875 C-13.48985474 56.7191626 -13.48985474 56.7191626 -14.94604492 56.75146484 C-19.59822569 56.65597943 -20.80575618 54.86850559 -24.0625 51.6875 C-25.81680952 48.17888097 -25.0195916 44.39705505 -24.0625 40.6875 C-20.7398695 36.890208 -17.91098175 36.38493029 -13.0625 35.6875 C-13.04791748 34.96159668 -13.03333496 34.23569336 -13.01831055 33.48779297 C-12.94355141 30.17884268 -12.8469821 26.87087048 -12.75 23.5625 C-12.71616211 21.84933594 -12.71616211 21.84933594 -12.68164062 20.1015625 C-12.46421826 13.30217212 -12.03005234 8.41148726 -7.66796875 2.9375 C-4.95727378 0.54790664 -3.6419066 -0.37162312 0 0 Z " fill="#232B59" transform="translate(256.0625,525.3125)"/>
<path d="M0 0 C2.9196976 1.91831371 5.40575595 3.81151189 7 7 C7.43023798 10.87214182 7.31669086 12.52496371 5.125 15.8125 C2.76657982 18.24028548 1.9647156 18.9798403 -1.39501953 19.05004883 C-2.38099121 19.01935303 -3.36696289 18.98865723 -4.3828125 18.95703125 C-5.46820312 18.93576172 -6.55359375 18.91449219 -7.671875 18.89257812 C-9.950838 18.83972887 -12.22955826 18.77487359 -14.5078125 18.69726562 C-21.24110968 18.5900728 -26.433252 18.97385534 -32 23 C-37.7419869 28.61438719 -40.10207182 34.44771397 -40.4375 42.375 C-40.227988 49.22223311 -38.44774867 55.34827228 -33.75 60.4375 C-25.8960915 64.89994801 -19.62953892 65.58236609 -10.71484375 64.66015625 C-9.57144531 64.54542969 -8.42804687 64.43070313 -7.25 64.3125 C-6.18265625 64.18488281 -5.1153125 64.05726563 -4.015625 63.92578125 C-0.46159078 64.013251 1.14715954 64.94936424 4 67 C4.598125 67.4125 5.19625 67.825 5.8125 68.25 C7.92665454 71.36559617 7.66949926 73.34818587 7 77 C2.09680236 82.76096744 -3.48494243 86.19481526 -11 87 C-24.62151677 87.84881855 -37.0095192 85.15352572 -47.625 76.375 C-56.44132497 68.13530214 -61.23459226 57.23888328 -62.34765625 45.2578125 C-62.69180449 30.624031 -59.32204125 18.66899746 -49.375 7.75 C-37.30522594 -3.73725601 -15.1957051 -7.71941819 0 0 Z " fill="#232C5A" transform="translate(604,566)"/>
<path d="M0 0 C2.16933313 1.71717704 3.859236 3.26534699 5.10546875 5.7578125 C5.36038263 9.666492 5.33835894 12.46723748 3.10546875 15.7578125 C-0.31741029 18.03973186 -1.31775087 17.95155446 -5.3046875 17.77734375 C-6.37783203 17.74833984 -7.45097656 17.71933594 -8.55664062 17.68945312 C-10.79670336 17.6109673 -13.03637248 17.52012536 -15.27539062 17.41601562 C-22.90989032 17.23868061 -28.55134207 18.3404391 -34.89453125 22.7578125 C-40.11828055 28.00475518 -41.54121495 33.94199649 -42.20703125 41.1328125 C-41.67160017 47.34381298 -40.48577041 52.7897009 -36.51953125 57.6953125 C-31.26874599 61.82092949 -27.149376 63.90538365 -20.45703125 63.8828125 C-19.15185547 63.87894531 -19.15185547 63.87894531 -17.8203125 63.875 C-14.56868119 63.7447611 -11.37805193 63.36996682 -8.14453125 63.0078125 C-1.34610206 62.45528999 -1.34610206 62.45528999 1.79296875 64.3203125 C4.49915192 67.17277584 5.55884725 68.8533732 6.10546875 72.7578125 C4.65842943 77.48480761 2.15088584 80.09862729 -1.890625 82.72265625 C-11.57038528 87.72292228 -23.84766904 86.62551864 -34 83.8046875 C-41.01089749 81.26903227 -46.97741538 77.37737349 -51.89453125 71.7578125 C-52.71953125 70.8709375 -53.54453125 69.9840625 -54.39453125 69.0703125 C-61.98557075 59.68328574 -65.08379224 47.70616897 -63.89453125 35.7578125 C-61.83070892 21.90762984 -57.03099662 11.14787101 -45.953125 2.1875 C-33.83176695 -5.99135573 -12.684252 -8.31668481 0 0 Z " fill="#232C5A" transform="translate(444.89453125,567.2421875)"/>
<path d="M0 0 C2.5 1.4375 2.5 1.4375 4 4 C4.76430005 8.33899506 4.80920078 11.75507572 2.375 15.5 C-0.61637647 17.3892904 -2.44462166 18 -6 18 C-11.50649351 14.98701299 -11.50649351 14.98701299 -13 12 C-13.25491388 8.0913205 -13.23289019 5.29057502 -11 2 C-7.30255904 -0.46496064 -4.28967484 -0.66459751 0 0 Z " fill="#222A57" transform="translate(905,631)"/>
<path d="" fill="#000000" transform="translate(0,0)"/>
<path d="M0 0 C2 1 2 1 2 1 Z " fill="#000000" transform="translate(864,647)"/>
<path d="" fill="#000000" transform="translate(0,0)"/>
<path d="M0 0 C2 1 2 1 2 1 Z " fill="#000000" transform="translate(318,621)"/>
<path d="" fill="#000000" transform="translate(0,0)"/>
<path d="" fill="#000000" transform="translate(0,0)"/>
<path d="M0 0 C2 1 2 1 2 1 Z " fill="#000000" transform="translate(394,571)"/>
<path d="" fill="#000000" transform="translate(0,0)"/>
<path d="" fill="#000000" transform="translate(0,0)"/>
<path d="" fill="#000000" transform="translate(0,0)"/>
<path d="" fill="#000000" transform="translate(0,0)"/>
<path d="" fill="#000000" transform="translate(0,0)"/>
<path d="" fill="#000000" transform="translate(0,0)"/>
<path d="" fill="#000000" transform="translate(0,0)"/>
<path d="" fill="#000000" transform="translate(0,0)"/>
<path d="" fill="#000000" transform="translate(0,0)"/>
<path d="" fill="#000000" transform="translate(0,0)"/>
<path d="" fill="#000000" transform="translate(0,0)"/>
<path d="" fill="#000000" transform="translate(0,0)"/>
<path d="" fill="#000000" transform="translate(0,0)"/>
<path d="" fill="#000000" transform="translate(0,0)"/>
<path d="" fill="#000000" transform="translate(0,0)"/>
<path d="" fill="#000000" transform="translate(0,0)"/>
<path d="" fill="#000000" transform="translate(0,0)"/>
<path d="" fill="#000000" transform="translate(0,0)"/>
<path d="" fill="#000000" transform="translate(0,0)"/>
<path d="" fill="#000000" transform="translate(0,0)"/>
<path d="" fill="#000000" transform="translate(0,0)"/>
<path d="" fill="#000000" transform="translate(0,0)"/>
<path d="" fill="#000000" transform="translate(0,0)"/>
<path d="" fill="#000000" transform="translate(0,0)"/>
<path d="" fill="#000000" transform="translate(0,0)"/>
<path d="" fill="#000000" transform="translate(0,0)"/>
<path d="" fill="#000000" transform="translate(0,0)"/>
<path d="" fill="#000000" transform="translate(0,0)"/>
<path d="" fill="#000000" transform="translate(0,0)"/>
<path d="" fill="#000000" transform="translate(0,0)"/>
<path d="" fill="#000000" transform="translate(0,0)"/>
<path d="" fill="#000000" transform="translate(0,0)"/>
<path d="" fill="#000000" transform="translate(0,0)"/>
<path d="" fill="#000000" transform="translate(0,0)"/>
<path d="" fill="#000000" transform="translate(0,0)"/>
<path d="" fill="#000000" transform="translate(0,0)"/>
<path d="" fill="#000000" transform="translate(0,0)"/>
<path d="" fill="#000000" transform="translate(0,0)"/>
<path d="" fill="#000000" transform="translate(0,0)"/>
<path d="" fill="#000000" transform="translate(0,0)"/>
<path d="" fill="#000000" transform="translate(0,0)"/>
<path d="" fill="#000000" transform="translate(0,0)"/>
<path d="" fill="#000000" transform="translate(0,0)"/>
<path d="" fill="#000000" transform="translate(0,0)"/>
<path d="" fill="#000000" transform="translate(0,0)"/>
<path d="" fill="#000000" transform="translate(0,0)"/>
<path d="" fill="#000000" transform="translate(0,0)"/>
<path d="" fill="#000000" transform="translate(0,0)"/>
<path d="" fill="#000000" transform="translate(0,0)"/>
<path d="" fill="#000000" transform="translate(0,0)"/>
<path d="" fill="#000000" transform="translate(0,0)"/>
<path d="" fill="#000000" transform="translate(0,0)"/>
<path d="" fill="#000000" transform="translate(0,0)"/>
<path d="" fill="#000000" transform="translate(0,0)"/>
<path d="" fill="#000000" transform="translate(0,0)"/>
<path d="" fill="#000000" transform="translate(0,0)"/>
<path d="" fill="#000000" transform="translate(0,0)"/>
<path d="" fill="#000000" transform="translate(0,0)"/>
<path d="" fill="#000000" transform="translate(0,0)"/>
<path d="" fill="#000000" transform="translate(0,0)"/>
<path d="" fill="#000000" transform="translate(0,0)"/>
<path d="" fill="#000000" transform="translate(0,0)"/>
<path d="" fill="#000000" transform="translate(0,0)"/>
<path d="" fill="#000000" transform="translate(0,0)"/>
<path d="" fill="#000000" transform="translate(0,0)"/>
<path d="" fill="#000000" transform="translate(0,0)"/>
<path d="" fill="#000000" transform="translate(0,0)"/>
<path d="" fill="#000000" transform="translate(0,0)"/>
<path d="" fill="#000000" transform="translate(0,0)"/>
<path d="" fill="#000000" transform="translate(0,0)"/>
<path d="" fill="#000000" transform="translate(0,0)"/>
<path d="" fill="#000000" transform="translate(0,0)"/>
<path d="" fill="#000000" transform="translate(0,0)"/>
<path d="" fill="#000000" transform="translate(0,0)"/>
<path d="" fill="#000000" transform="translate(0,0)"/>
<path d="" fill="#000000" transform="translate(0,0)"/>
<path d="" fill="#000000" transform="translate(0,0)"/>
<path d="" fill="#000000" transform="translate(0,0)"/>
<path d="" fill="#000000" transform="translate(0,0)"/>
<path d="" fill="#000000" transform="translate(0,0)"/>
<path d="" fill="#000000" transform="translate(0,0)"/>
<path d="" fill="#000000" transform="translate(0,0)"/>
<path d="" fill="#000000" transform="translate(0,0)"/>
<path d="" fill="#000000" transform="translate(0,0)"/>
<path d="" fill="#000000" transform="translate(0,0)"/>
<path d="" fill="#000000" transform="translate(0,0)"/>
<path d="" fill="#000000" transform="translate(0,0)"/>
<path d="" fill="#000000" transform="translate(0,0)"/>
<path d="" fill="#000000" transform="translate(0,0)"/>
<path d="" fill="#000000" transform="translate(0,0)"/>
<path d="" fill="#000000" transform="translate(0,0)"/>
<path d="" fill="#000000" transform="translate(0,0)"/>
<path d="" fill="#000000" transform="translate(0,0)"/>
<path d="" fill="#000000" transform="translate(0,0)"/>
<path d="" fill="#000000" transform="translate(0,0)"/>
<path d="" fill="#000000" transform="translate(0,0)"/>
<path d="" fill="#000000" transform="translate(0,0)"/>
<path d="" fill="#000000" transform="translate(0,0)"/>
<path d="" fill="#000000" transform="translate(0,0)"/>
<path d="" fill="#000000" transform="translate(0,0)"/>
<path d="" fill="#000000" transform="translate(0,0)"/>
<path d="" fill="#000000" transform="translate(0,0)"/>
<path d="" fill="#000000" transform="translate(0,0)"/>
<path d="" fill="#000000" transform="translate(0,0)"/>
<path d="" fill="#000000" transform="translate(0,0)"/>
<path d="" fill="#000000" transform="translate(0,0)"/>
<path d="" fill="#000000" transform="translate(0,0)"/>
<path d="" fill="#000000" transform="translate(0,0)"/>
<path d="" fill="#000000" transform="translate(0,0)"/>
<path d="" fill="#000000" transform="translate(0,0)"/>
<path d="" fill="#000000" transform="translate(0,0)"/>
<path d="" fill="#000000" transform="translate(0,0)"/>
<path d="" fill="#000000" transform="translate(0,0)"/>
<path d="" fill="#000000" transform="translate(0,0)"/>
<path d="" fill="#000000" transform="translate(0,0)"/>
<path d="" fill="#000000" transform="translate(0,0)"/>
<path d="" fill="#000000" transform="translate(0,0)"/>
<path d="" fill="#000000" transform="translate(0,0)"/>
<path d="" fill="#000000" transform="translate(0,0)"/>
<path d="" fill="#000000" transform="translate(0,0)"/>
<path d="" fill="#000000" transform="translate(0,0)"/>
<path d="" fill="#000000" transform="translate(0,0)"/>
<path d="" fill="#000000" transform="translate(0,0)"/>
<path d="" fill="#000000" transform="translate(0,0)"/>
<path d="" fill="#000000" transform="translate(0,0)"/>
<path d="" fill="#000000" transform="translate(0,0)"/>
<path d="" fill="#000000" transform="translate(0,0)"/>
<path d="" fill="#000000" transform="translate(0,0)"/>
<path d="" fill="#000000" transform="translate(0,0)"/>
<path d="" fill="#000000" transform="translate(0,0)"/>
<path d="" fill="#000000" transform="translate(0,0)"/>
<path d="" fill="#000000" transform="translate(0,0)"/>
<path d="" fill="#000000" transform="translate(0,0)"/>
<path d="" fill="#000000" transform="translate(0,0)"/>
<path d="" fill="#000000" transform="translate(0,0)"/>
<path d="" fill="#000000" transform="translate(0,0)"/>
<path d="" fill="#000000" transform="translate(0,0)"/>
<path d="" fill="#000000" transform="translate(0,0)"/>
<path d="" fill="#000000" transform="translate(0,0)"/>
<path d="" fill="#000000" transform="translate(0,0)"/>
<path d="" fill="#000000" transform="translate(0,0)"/>
<path d="" fill="#000000" transform="translate(0,0)"/>
<path d="" fill="#000000" transform="translate(0,0)"/>
<path d="" fill="#000000" transform="translate(0,0)"/>
<path d="" fill="#000000" transform="translate(0,0)"/>
<path d="" fill="#000000" transform="translate(0,0)"/>
<path d="" fill="#000000" transform="translate(0,0)"/>
<path d="" fill="#000000" transform="translate(0,0)"/>
<path d="" fill="#000000" transform="translate(0,0)"/>
<path d="" fill="#000000" transform="translate(0,0)"/>
<path d="" fill="#000000" transform="translate(0,0)"/>
<path d="" fill="#000000" transform="translate(0,0)"/>
<path d="" fill="#000000" transform="translate(0,0)"/>
<path d="" fill="#000000" transform="translate(0,0)"/>
<path d="" fill="#000000" transform="translate(0,0)"/>
<path d="" fill="#000000" transform="translate(0,0)"/>
<path d="" fill="#000000" transform="translate(0,0)"/>
<path d="" fill="#000000" transform="translate(0,0)"/>
<path d="" fill="#000000" transform="translate(0,0)"/>
<path d="" fill="#000000" transform="translate(0,0)"/>
<path d="" fill="#000000" transform="translate(0,0)"/>
<path d="" fill="#000000" transform="translate(0,0)"/>
<path d="" fill="#000000" transform="translate(0,0)"/>
<path d="" fill="#000000" transform="translate(0,0)"/>
<path d="" fill="#000000" transform="translate(0,0)"/>
<path d="" fill="#000000" transform="translate(0,0)"/>
<path d="" fill="#000000" transform="translate(0,0)"/>
<path d="" fill="#000000" transform="translate(0,0)"/>
<path d="" fill="#000000" transform="translate(0,0)"/>
<path d="" fill="#000000" transform="translate(0,0)"/>
<path d="" fill="#000000" transform="translate(0,0)"/>
<path d="" fill="#000000" transform="translate(0,0)"/>
<path d="" fill="#000000" transform="translate(0,0)"/>
<path d="" fill="#000000" transform="translate(0,0)"/>
<path d="" fill="#000000" transform="translate(0,0)"/>
<path d="" fill="#000000" transform="translate(0,0)"/>
<path d="" fill="#000000" transform="translate(0,0)"/>
<path d="" fill="#000000" transform="translate(0,0)"/>
<path d="" fill="#000000" transform="translate(0,0)"/>
<path d="" fill="#000000" transform="translate(0,0)"/>
<path d="" fill="#000000" transform="translate(0,0)"/>
<path d="" fill="#000000" transform="translate(0,0)"/>
<path d="" fill="#000000" transform="translate(0,0)"/>
<path d="" fill="#000000" transform="translate(0,0)"/>
<path d="" fill="#000000" transform="translate(0,0)"/>
<path d="" fill="#000000" transform="translate(0,0)"/>
<path d="" fill="#000000" transform="translate(0,0)"/>
<path d="" fill="#000000" transform="translate(0,0)"/>
<path d="" fill="#000000" transform="translate(0,0)"/>
<path d="" fill="#000000" transform="translate(0,0)"/>
<path d="" fill="#000000" transform="translate(0,0)"/>
<path d="" fill="#000000" transform="translate(0,0)"/>
<path d="" fill="#000000" transform="translate(0,0)"/>
<path d="" fill="#000000" transform="translate(0,0)"/>
<path d="" fill="#000000" transform="translate(0,0)"/>
<path d="" fill="#000000" transform="translate(0,0)"/>
<path d="" fill="#000000" transform="translate(0,0)"/>
<path d="" fill="#000000" transform="translate(0,0)"/>
<path d="" fill="#000000" transform="translate(0,0)"/>
<path d="" fill="#000000" transform="translate(0,0)"/>
<path d="" fill="#000000" transform="translate(0,0)"/>
<path d="" fill="#000000" transform="translate(0,0)"/>
<path d="" fill="#000000" transform="translate(0,0)"/>
<path d="" fill="#000000" transform="translate(0,0)"/>
<path d="" fill="#000000" transform="translate(0,0)"/>
<path d="" fill="#000000" transform="translate(0,0)"/>
<path d="" fill="#000000" transform="translate(0,0)"/>
<path d="" fill="#000000" transform="translate(0,0)"/>
<path d="" fill="#000000" transform="translate(0,0)"/>
<path d="" fill="#000000" transform="translate(0,0)"/>
<path d="" fill="#000000" transform="translate(0,0)"/>
<path d="" fill="#000000" transform="translate(0,0)"/>
<path d="" fill="#000000" transform="translate(0,0)"/>
<path d="" fill="#000000" transform="translate(0,0)"/>
<path d="" fill="#000000" transform="translate(0,0)"/>
<path d="" fill="#000000" transform="translate(0,0)"/>
<path d="" fill="#000000" transform="translate(0,0)"/>
<path d="" fill="#000000" transform="translate(0,0)"/>
<path d="" fill="#000000" transform="translate(0,0)"/>
<path d="" fill="#000000" transform="translate(0,0)"/>
<path d="" fill="#000000" transform="translate(0,0)"/>
<path d="" fill="#000000" transform="translate(0,0)"/>
<path d="" fill="#000000" transform="translate(0,0)"/>
<path d="" fill="#000000" transform="translate(0,0)"/>
<path d="" fill="#000000" transform="translate(0,0)"/>
<path d="" fill="#000000" transform="translate(0,0)"/>
<path d="" fill="#000000" transform="translate(0,0)"/>
<path d="" fill="#000000" transform="translate(0,0)"/>
<path d="" fill="#000000" transform="translate(0,0)"/>
<path d="" fill="#000000" transform="translate(0,0)"/>
<path d="" fill="#000000" transform="translate(0,0)"/>
<path d="" fill="#000000" transform="translate(0,0)"/>
<path d="" fill="#000000" transform="translate(0,0)"/>
<path d="" fill="#000000" transform="translate(0,0)"/>
<path d="" fill="#000000" transform="translate(0,0)"/>
<path d="" fill="#000000" transform="translate(0,0)"/>
<path d="" fill="#000000" transform="translate(0,0)"/>
<path d="" fill="#000000" transform="translate(0,0)"/>
<path d="" fill="#000000" transform="translate(0,0)"/>
<path d="" fill="#000000" transform="translate(0,0)"/>
<path d="" fill="#000000" transform="translate(0,0)"/>
<path d="" fill="#000000" transform="translate(0,0)"/>
<path d="" fill="#000000" transform="translate(0,0)"/>
<path d="" fill="#000000" transform="translate(0,0)"/>
<path d="" fill="#000000" transform="translate(0,0)"/>
<path d="" fill="#000000" transform="translate(0,0)"/>
<path d="" fill="#000000" transform="translate(0,0)"/>
<path d="" fill="#000000" transform="translate(0,0)"/>
<path d="" fill="#000000" transform="translate(0,0)"/>
<path d="" fill="#000000" transform="translate(0,0)"/>
<path d="" fill="#000000" transform="translate(0,0)"/>
<path d="" fill="#000000" transform="translate(0,0)"/>
<path d="" fill="#000000" transform="translate(0,0)"/>
<path d="" fill="#000000" transform="translate(0,0)"/>
<path d="" fill="#000000" transform="translate(0,0)"/>
<path d="" fill="#000000" transform="translate(0,0)"/>
<path d="" fill="#000000" transform="translate(0,0)"/>
<path d="" fill="#000000" transform="translate(0,0)"/>
<path d="" fill="#000000" transform="translate(0,0)"/>
<path d="" fill="#000000" transform="translate(0,0)"/>
<path d="" fill="#000000" transform="translate(0,0)"/>
<path d="" fill="#000000" transform="translate(0,0)"/>
<path d="" fill="#000000" transform="translate(0,0)"/>
<path d="" fill="#000000" transform="translate(0,0)"/>
<path d="" fill="#000000" transform="translate(0,0)"/>
<path d="" fill="#000000" transform="translate(0,0)"/>
<path d="" fill="#000000" transform="translate(0,0)"/>
<path d="" fill="#000000" transform="translate(0,0)"/>
<path d="" fill="#000000" transform="translate(0,0)"/>
<path d="" fill="#000000" transform="translate(0,0)"/>
<path d="" fill="#000000" transform="translate(0,0)"/>
<path d="" fill="#000000" transform="translate(0,0)"/>
<path d="" fill="#000000" transform="translate(0,0)"/>
<path d="" fill="#000000" transform="translate(0,0)"/>
<path d="" fill="#000000" transform="translate(0,0)"/>
<path d="" fill="#000000" transform="translate(0,0)"/>
<path d="" fill="#000000" transform="translate(0,0)"/>
<path d="" fill="#000000" transform="translate(0,0)"/>
<path d="" fill="#000000" transform="translate(0,0)"/>
<path d="" fill="#000000" transform="translate(0,0)"/>
<path d="" fill="#000000" transform="translate(0,0)"/>
<path d="" fill="#000000" transform="translate(0,0)"/>
<path d="" fill="#000000" transform="translate(0,0)"/>
<path d="" fill="#000000" transform="translate(0,0)"/>
<path d="" fill="#000000" transform="translate(0,0)"/>
<path d="" fill="#000000" transform="translate(0,0)"/>
<path d="" fill="#000000" transform="translate(0,0)"/>
<path d="" fill="#000000" transform="translate(0,0)"/>
<path d="" fill="#000000" transform="translate(0,0)"/>
<path d="" fill="#000000" transform="translate(0,0)"/>
<path d="" fill="#000000" transform="translate(0,0)"/>
<path d="" fill="#000000" transform="translate(0,0)"/>
<path d="" fill="#000000" transform="translate(0,0)"/>
<path d="" fill="#000000" transform="translate(0,0)"/>
<path d="" fill="#000000" transform="translate(0,0)"/>
<path d="" fill="#000000" transform="translate(0,0)"/>
<path d="" fill="#000000" transform="translate(0,0)"/>
<path d="" fill="#000000" transform="translate(0,0)"/>
<path d="" fill="#000000" transform="translate(0,0)"/>
<path d="" fill="#000000" transform="translate(0,0)"/>
<path d="" fill="#000000" transform="translate(0,0)"/>
<path d="" fill="#000000" transform="translate(0,0)"/>
<path d="" fill="#000000" transform="translate(0,0)"/>
<path d="" fill="#000000" transform="translate(0,0)"/>
<path d="" fill="#000000" transform="translate(0,0)"/>
<path d="" fill="#000000" transform="translate(0,0)"/>
<path d="" fill="#000000" transform="translate(0,0)"/>
<path d="" fill="#000000" transform="translate(0,0)"/>
<path d="" fill="#000000" transform="translate(0,0)"/>
<path d="" fill="#000000" transform="translate(0,0)"/>
<path d="" fill="#000000" transform="translate(0,0)"/>
<path d="" fill="#000000" transform="translate(0,0)"/>
<path d="" fill="#000000" transform="translate(0,0)"/>
<path d="" fill="#000000" transform="translate(0,0)"/>
<path d="" fill="#000000" transform="translate(0,0)"/>
<path d="" fill="#000000" transform="translate(0,0)"/>
<path d="" fill="#000000" transform="translate(0,0)"/>
<path d="" fill="#000000" transform="translate(0,0)"/>
<path d="" fill="#000000" transform="translate(0,0)"/>
<path d="" fill="#000000" transform="translate(0,0)"/>
<path d="" fill="#000000" transform="translate(0,0)"/>
<path d="" fill="#000000" transform="translate(0,0)"/>
<path d="" fill="#000000" transform="translate(0,0)"/>
<path d="" fill="#000000" transform="translate(0,0)"/>
<path d="" fill="#000000" transform="translate(0,0)"/>
<path d="" fill="#000000" transform="translate(0,0)"/>
<path d="" fill="#000000" transform="translate(0,0)"/>
<path d="" fill="#000000" transform="translate(0,0)"/>
<path d="" fill="#000000" transform="translate(0,0)"/>
<path d="" fill="#000000" transform="translate(0,0)"/>
<path d="" fill="#000000" transform="translate(0,0)"/>
<path d="" fill="#000000" transform="translate(0,0)"/>
<path d="" fill="#000000" transform="translate(0,0)"/>
<path d="" fill="#000000" transform="translate(0,0)"/>
<path d="" fill="#000000" transform="translate(0,0)"/>
<path d="" fill="#000000" transform="translate(0,0)"/>
<path d="" fill="#000000" transform="translate(0,0)"/>
<path d="" fill="#000000" transform="translate(0,0)"/>
<path d="" fill="#000000" transform="translate(0,0)"/>
<path d="" fill="#000000" transform="translate(0,0)"/>
<path d="" fill="#000000" transform="translate(0,0)"/>
<path d="" fill="#000000" transform="translate(0,0)"/>
<path d="" fill="#000000" transform="translate(0,0)"/>
<path d="" fill="#000000" transform="translate(0,0)"/>
<path d="" fill="#000000" transform="translate(0,0)"/>
<path d="" fill="#000000" transform="translate(0,0)"/>
<path d="" fill="#000000" transform="translate(0,0)"/>
<path d="" fill="#000000" transform="translate(0,0)"/>
<path d="" fill="#000000" transform="translate(0,0)"/>
<path d="" fill="#000000" transform="translate(0,0)"/>
<path d="" fill="#000000" transform="translate(0,0)"/>
<path d="" fill="#000000" transform="translate(0,0)"/>
</svg>
