<?xml version="1.0" encoding="UTF-8"?>
<svg version="1.1" xmlns="http://www.w3.org/2000/svg" width="512" height="512">
<path d="M0 0 C168.96 0 337.92 0 512 0 C512 168.96 512 337.92 512 512 C343.04 512 174.08 512 0 512 C0 343.04 0 174.08 0 0 Z " fill="#282C5C" transform="translate(0,0)"/>
<path d="M0 0 C1.2375 -0.103125 2.475 -0.20625 3.75 -0.3125 C4.44609375 -0.37050781 5.1421875 -0.42851562 5.859375 -0.48828125 C9.2690768 0.2894792 10.163856 2.08990366 12 5 C12.37737131 7.98795957 12.52781042 10.5999953 12.48583984 13.58227539 C12.48963654 14.43489456 12.49343323 15.28751373 12.49734497 16.16596985 C12.50473869 18.97690932 12.48338644 21.78680907 12.4609375 24.59765625 C12.45855246 26.55390807 12.45764788 28.5101622 12.4581604 30.46641541 C12.45503451 34.56279881 12.43848417 38.65883171 12.41162109 42.75512695 C12.37761922 48.00658366 12.3699933 53.25765574 12.37151146 58.50920963 C12.37096773 62.5472328 12.3600004 66.58517185 12.34550858 70.62316704 C12.33914374 72.55965984 12.33520242 74.49616217 12.33372116 76.43266487 C12.32938611 79.13764829 12.31188132 81.84222343 12.29052734 84.54711914 C12.2918869 85.74806213 12.2918869 85.74806213 12.29327393 86.9732666 C12.21291373 93.9326779 12.21291373 93.9326779 10 97 C6.98131566 98.50934217 4.32702771 98.17510672 1 98 C0.01 97.34 -0.98 96.68 -2 96 C-2 95.34 -2 94.68 -2 94 C-2.90492188 94.41572266 -2.90492188 94.41572266 -3.828125 94.83984375 C-5.02695312 95.38318359 -5.02695312 95.38318359 -6.25 95.9375 C-7.03890625 96.29714844 -7.8278125 96.65679687 -8.640625 97.02734375 C-15.46044088 99.83882414 -22.11435839 99.94268511 -29.0625 97.4375 C-36.98367885 93.93887668 -42.27025315 88.7463973 -46 81 C-46.53173828 79.89591797 -46.53173828 79.89591797 -47.07421875 78.76953125 C-49.55811259 71.33881087 -49.26271328 61.51792969 -45.875 54.4375 C-44.96560508 52.92775244 -44.00891921 51.44513627 -43 50 C-42.56558594 49.34515625 -42.13117188 48.6903125 -41.68359375 48.015625 C-37.24720663 42.10044217 -30.88046368 39.29348789 -24 37 C-16.12406445 36.01752133 -9.9478098 38.5260951 -3 42 C-3.00523682 40.85934082 -3.01047363 39.71868164 -3.01586914 38.54345703 C-3.03393869 34.32048321 -3.04543919 30.09751282 -3.05493164 25.87451172 C-3.05996737 24.04507879 -3.06679627 22.21564991 -3.07543945 20.38623047 C-3.08753824 17.76008102 -3.09323583 15.13398468 -3.09765625 12.5078125 C-3.10281754 11.68693146 -3.10797882 10.86605042 -3.11329651 10.02029419 C-3.11387171 4.22774341 -3.11387171 4.22774341 -2 2 C-1.34 2 -0.68 2 0 2 C0 1.34 0 0.68 0 0 Z " fill="#FAFAFB" transform="translate(461,206)"/>
<path d="M0 0 C3.7528487 0.53612124 4.99358156 0.7231717 7.5 3.5 C7.89663578 6.49812795 8.03649171 9.13065919 8.00170898 12.13061523 C8.00711197 13.01220306 8.01251495 13.89379089 8.01808167 14.80209351 C8.03060629 17.72126668 8.01405187 20.63946067 7.99609375 23.55859375 C7.99624867 25.58496655 7.9977364 27.61133965 8.00050354 29.63771057 C8.00188925 33.88726886 7.98930165 38.13649035 7.96655273 42.38598633 C7.93818582 47.8348743 7.94089829 53.28320168 7.95364285 58.732131 C7.96059665 62.9177174 7.95281381 67.10317413 7.94038582 71.28874397 C7.93586715 73.29780645 7.93553813 75.30688283 7.93945122 77.31594658 C7.94236002 80.12425147 7.92587154 82.93178303 7.90405273 85.73999023 C7.90855438 86.5718132 7.91305603 87.40363617 7.91769409 88.26066589 C7.87433864 91.61739651 7.74928914 94.05323111 6.09584045 97.01649475 C4.12020803 98.85305746 3.16889178 99.01332079 0.5 98.9375 C-2.27477095 98.80998295 -3.23339361 98.6999548 -5.5 97 C-5.83 96.505 -6.16 96.01 -6.5 95.5 C-7.6446875 95.9640625 -7.6446875 95.9640625 -8.8125 96.4375 C-16.82782511 99.60634946 -26.57211307 100.05466514 -34.85546875 97.44140625 C-42.55348102 93.52338345 -48.30678761 87.41755262 -51.01953125 79.08203125 C-52.90152364 68.96823475 -52.71657834 59.08561529 -47.48046875 50.03125 C-43.15459158 44.50231823 -37.1795856 40.61815767 -30.5 38.5 C-27.01171875 38.19921875 -27.01171875 38.19921875 -23.1875 38.1875 C-21.93324219 38.17074219 -20.67898438 38.15398437 -19.38671875 38.13671875 C-16.15369789 38.4389006 -14.19020803 38.86939055 -11.25708008 40.02270508 C-10.54965164 40.29786453 -9.84222321 40.57302399 -9.11335754 40.85652161 C-8.58094955 41.06886948 -8.04854156 41.28121735 -7.5 41.5 C-7.52094727 40.43563721 -7.54189453 39.37127441 -7.56347656 38.2746582 C-7.63603962 34.31450934 -7.68185851 30.3544189 -7.71972656 26.39379883 C-7.73980505 24.68178414 -7.76707392 22.96983772 -7.80175781 21.25805664 C-7.85044401 18.79295992 -7.87300573 16.3287721 -7.890625 13.86328125 C-7.91127014 13.10163162 -7.93191528 12.33998199 -7.95318604 11.55525208 C-7.95473197 7.86920934 -7.61495891 5.69045316 -5.69433594 2.50854492 C-3.5 0.5 -3.5 0.5 0 0 Z " fill="#FBFBFC" transform="translate(400.5,205.5)"/>
<path d="M0 0 C0 0.66 0 1.32 0 2 C0.928125 2.37125 0.928125 2.37125 1.875 2.75 C4.40358627 4.23740369 4.71839004 5.43678009 6 8 C8.0335948 9.26804566 8.0335948 9.26804566 10 10 C10 10.66 10 11.32 10 12 C10.66 12 11.32 12 12 12 C14.42843172 16.85686345 13.31257287 24.28329175 13.35009766 29.68432617 C13.36664961 31.43120656 13.39392995 33.17801943 13.43212891 34.92456055 C13.48698252 37.44615726 13.50878326 39.96616775 13.5234375 42.48828125 C13.54610687 43.26553055 13.56877625 44.04277985 13.59213257 44.84358215 C13.57644494 48.88342392 13.1638677 50.78464439 10.68994141 54.03588867 C8 56 8 56 4.4375 55.9375 C1 55 1 55 -1 53.75 C-3.21271505 52.65153558 -3.21271505 52.65153558 -6.1328125 54.421875 C-10.0067289 56.1634339 -13.65687083 56.53660864 -17.875 56.5 C-18.57173828 56.49935547 -19.26847656 56.49871094 -19.98632812 56.49804688 C-26.0156641 56.32417765 -30.28334851 54.66850672 -35 51 C-35 50.34 -35 49.68 -35 49 C-35.556875 48.79375 -36.11375 48.5875 -36.6875 48.375 C-42.11325142 45.14887754 -44.76516802 40.37941349 -46.49609375 34.484375 C-48.28958681 25.6420371 -47.25079142 16.68128967 -42.74609375 8.80859375 C-38.54058031 2.76961396 -33.36401926 -1.678421 -26.5 -4.375 C-17.14781559 -6.04503293 -8.54174545 -4.27087273 0 0 Z " fill="#FAF5F6" transform="translate(331,249)"/>
<path d="M0 0 C4.65605189 1.26983233 4.65605189 1.26983233 6.4375 3.9375 C6.69909322 6.73739129 6.78654338 9.30977929 6.73046875 12.10546875 C6.72622391 12.90028152 6.72197906 13.6950943 6.71760559 14.51399231 C6.7008193 17.05134021 6.66316824 19.58789238 6.625 22.125 C6.60995305 23.84569165 6.59626466 25.56639576 6.58398438 27.28710938 C6.55091607 31.50421262 6.49913495 35.72072142 6.4375 39.9375 C7.52853027 39.51198853 7.52853027 39.51198853 8.64160156 39.07788086 C10.09518066 38.52692749 10.09518066 38.52692749 11.578125 37.96484375 C13.00946777 37.41558228 13.00946777 37.41558228 14.46972656 36.85522461 C20.52428825 34.98297244 26.14465644 35.28786099 32.1875 37 C38.91221785 41.00896641 42.40301798 44.99110023 44.79846191 52.41116333 C45.83425301 56.50600071 45.86630099 60.47487312 45.8359375 64.6796875 C45.83880768 65.56987579 45.84167786 66.46006409 45.84463501 67.37722778 C45.84666131 69.24107507 45.8412328 71.10494433 45.82861328 72.96875 C45.81242352 75.82599784 45.82856905 78.68185578 45.84765625 81.5390625 C45.8456758 83.35677395 45.84183624 85.17448454 45.8359375 86.9921875 C45.84504654 88.27184891 45.84504654 88.27184891 45.8543396 89.57736206 C45.78366504 95.4933267 45.78366504 95.4933267 44.09683228 97.65774536 C42.4375 98.9375 42.4375 98.9375 39.5 99.375 C35.67504326 98.82857761 34.76783274 97.97555885 32.4375 94.9375 C31.93920898 91.79638672 31.93920898 91.79638672 31.93359375 88.1171875 C31.92417252 87.45848663 31.91475128 86.79978577 31.90504456 86.12112427 C31.87645348 84.01793331 31.87331074 81.91586904 31.875 79.8125 C32.17908872 66.50749411 32.17908872 66.50749411 28.4375 53.9375 C24.00130413 50.98003609 19.66539683 51.74376984 14.5625 52.1875 C12.32708333 52.7375 12.32708333 52.7375 11.3125 54.625 C11.02375 55.388125 10.735 56.15125 10.4375 56.9375 C9.93283203 57.83138428 9.42816406 58.72526855 8.90820312 59.64624023 C7.25796381 63.33928078 7.05517089 65.88301978 7.03125 69.91015625 C6.99837891 71.87758789 6.99837891 71.87758789 6.96484375 73.88476562 C6.94861657 75.94733863 6.93744633 78.00990396 6.92626953 80.07250977 C6.91051652 82.08101851 6.87733674 84.08936657 6.84375 86.09765625 C6.83666016 87.29011963 6.82957031 88.48258301 6.82226562 89.71118164 C6.40317384 93.2253301 5.57047525 95.13794967 3.4375 97.9375 C0.63784321 98.60663403 -1.65050141 98.17618841 -4.5625 97.9375 C-7.61639757 92.85056718 -7.99910806 88.99110001 -7.96655273 83.24169922 C-7.97684761 81.96255142 -7.97684761 81.96255142 -7.98735046 80.65756226 C-8.00558142 77.85226576 -8.00178761 75.04753024 -7.99609375 72.2421875 C-8.00065606 70.28736184 -8.00596179 68.33253779 -8.01197815 66.37771606 C-8.020901 62.2873888 -8.01849401 58.19725688 -8.00854492 54.10693359 C-7.99703343 48.86319533 -8.01730432 43.62012829 -8.04646206 38.3764782 C-8.06479442 34.34274003 -8.06453792 30.3091638 -8.05882454 26.27539444 C-8.05867108 24.34167664 -8.0647354 22.40794804 -8.07711601 20.47426987 C-8.09197502 17.77391913 -8.08138833 15.07482286 -8.06420898 12.37451172 C-8.07387695 11.5754541 -8.08354492 10.77639648 -8.09350586 9.953125 C-8.04630396 6.41436034 -7.8369701 4.32161226 -5.75379944 1.40628052 C-3.5625 -0.0625 -3.5625 -0.0625 0 0 Z " fill="#FDFDFD" transform="translate(185.5625,206.0625)"/>
<path d="M0 0 C2.93484934 1.86654017 5.41261745 3.78134441 7.91015625 6.21484375 C7.91015625 6.87484375 7.91015625 7.53484375 7.91015625 8.21484375 C8.50828125 8.42109375 9.10640625 8.62734375 9.72265625 8.83984375 C12.89825456 10.83593412 13.63233804 12.70084367 14.91015625 16.21484375 C15.3947409 19.3014373 15.78482952 22.19376831 14.91015625 25.21484375 C11.51863561 27.54957248 8.14453684 28.95862945 4.2421875 30.22265625 C3.18451172 30.56941406 2.12683594 30.91617188 1.03710938 31.2734375 C-0.05666016 31.62535156 -1.15042969 31.97726562 -2.27734375 32.33984375 C-4.45872234 33.04958676 -6.63973151 33.7604665 -8.8203125 34.47265625 C-9.78348389 34.78348145 -10.74665527 35.09430664 -11.73901367 35.41455078 C-14.0724476 36.14985014 -14.0724476 36.14985014 -16.08984375 37.21484375 C-21.28800043 37.65724006 -21.28800043 37.65724006 -23.90234375 36.21484375 C-25.79087519 33.03415921 -25.78940922 29.88014496 -26.08984375 26.21484375 C-18.33535923 22.01598692 -10.42099092 19.03590943 -2.08984375 16.21484375 C-5.58422895 12.54975582 -8.44905648 11.39383872 -13.52734375 10.83984375 C-17.75047248 11.28438362 -19.73200407 12.69646399 -23.08984375 15.21484375 C-24.07984375 15.54484375 -25.06984375 15.87484375 -26.08984375 16.21484375 C-27.69727277 22.24270258 -28.1539334 29.18737146 -25.90234375 35.08984375 C-23.81816556 38.68325443 -22.81152506 40.31602675 -19.08984375 42.21484375 C-13.96626952 42.70016201 -8.99975794 42.85148181 -4.08984375 41.21484375 C-2.15234375 41.046875 -2.15234375 41.046875 -0.08984375 41.02734375 C0.93109375 41.00607422 0.93109375 41.00607422 1.97265625 40.984375 C3.91015625 41.21484375 3.91015625 41.21484375 6.91015625 43.21484375 C7.7247017 48.18357102 7.7247017 48.18357102 6.91015625 51.21484375 C2.93524199 55.79513288 -2.9188172 57.91954758 -8.81640625 58.46875 C-15.86415965 58.74530741 -21.03267355 57.83782405 -27.08984375 54.21484375 C-28.13978516 53.59609375 -28.13978516 53.59609375 -29.2109375 52.96484375 C-35.65001514 48.6802401 -39.65636011 42.51529468 -42.08984375 35.21484375 C-43.06012081 24.61548798 -42.47195972 16.20334262 -36.08984375 7.21484375 C-33.96680134 4.77012825 -31.80280733 2.9692656 -29.08984375 1.21484375 C-28.51878906 0.80492187 -27.94773437 0.395 -27.359375 -0.02734375 C-19.30099366 -5.01013818 -8.20083321 -4.30735352 0 0 Z " fill="#FAFAFB" transform="translate(108.08984375,246.78515625)"/>
<path d="M0 0 C2.41821075 2.18518317 3.84081088 3.9097368 4.31982422 7.19042969 C4.39344534 9.74228996 4.34891657 12.26159377 4.25 14.8125 C4.23195313 15.69615234 4.21390625 16.57980469 4.1953125 17.49023438 C4.14838513 19.66062543 4.07664731 21.83045519 4 24 C4.97582031 23.96519531 5.95164062 23.93039063 6.95703125 23.89453125 C8.22933594 23.86746094 9.50164063 23.84039062 10.8125 23.8125 C12.07707031 23.77769531 13.34164062 23.74289063 14.64453125 23.70703125 C18 24 18 24 19.92578125 25.29296875 C21.74109309 28.17766429 21.35319931 30.70347311 21 34 C19.16884793 36.61593153 18.09031634 36.96989455 15 38 C13.10529184 38.0685495 11.2083166 38.08480372 9.3125 38.0625 C8.31863281 38.05347656 7.32476562 38.04445313 6.30078125 38.03515625 C5.16189453 38.01775391 5.16189453 38.01775391 4 38 C4.02281937 42.39697976 4.10015958 46.79136575 4.1875 51.1875 C4.19330078 52.43337891 4.19910156 53.67925781 4.20507812 54.96289062 C4.25235236 62.06694673 4.25235236 62.06694673 7.3203125 68.2578125 C9.45262835 69.64412863 11.30081269 70.84545526 13.6875 71.6875 C17 73 17 73 19 75 C19.4446858 78.40925781 19.36050196 80.34766313 17.6875 83.375 C13.32443827 86.01313035 8.95910175 85.57026061 4 85 C-1.86477773 83.22950106 -4.91172539 79.07890946 -8 74 C-10.0988278 69.74817183 -10.2328697 66.22514787 -10.1953125 61.51171875 C-10.1924826 60.80852005 -10.18965271 60.10532135 -10.18673706 59.3808136 C-10.17560151 57.14953108 -10.15050997 54.91865983 -10.125 52.6875 C-10.1149616 51.16862562 -10.10583726 49.6497449 -10.09765625 48.13085938 C-10.07568413 44.42044079 -10.04120047 40.71026058 -10 37 C-10.95003906 37.03222656 -11.90007813 37.06445312 -12.87890625 37.09765625 C-16 37 -16 37 -17.9375 35.4375 C-19.44640049 31.97590475 -18.8701627 29.61452199 -18 26 C-16 24 -16 24 -12.875 23.875 C-11.451875 23.936875 -11.451875 23.936875 -10 24 C-10.05220703 22.02966797 -10.05220703 22.02966797 -10.10546875 20.01953125 C-10.13361466 18.28386699 -10.16091396 16.54818885 -10.1875 14.8125 C-10.21263672 13.94818359 -10.23777344 13.08386719 -10.26367188 12.19335938 C-10.3197835 7.31164778 -10.25490183 3.932678 -7 0 C-4.20824656 -1.39587672 -2.93876905 -0.97958968 0 0 Z " fill="#FCFCFD" transform="translate(43,219)"/>
<path d="M0 0 C1.78291046 1.28455477 3.23894873 2.45191101 4.62109375 4.16796875 C4.49609375 7.73046875 4.49609375 7.73046875 3.62109375 11.16796875 C-0.55023605 13.94885528 -4.40454871 13.2401618 -9.22265625 13.00195312 C-15.39678678 12.83367325 -19.96532893 14.0719674 -24.75390625 18.23046875 C-28.27600543 24.59734034 -27.66573183 31.42342678 -26.2421875 38.35546875 C-25.07679037 40.80227539 -23.85711375 41.16775527 -21.37890625 42.16796875 C-20.7657959 42.5141626 -20.15268555 42.86035645 -19.52099609 43.21704102 C-17.10045452 44.2915805 -15.56818286 44.36070716 -12.9375 44.2578125 C-11.69129883 44.2278418 -11.69129883 44.2278418 -10.41992188 44.19726562 C-8.68020176 44.13592516 -6.94061098 44.07080322 -5.20117188 44.00195312 C-3.9569043 43.97391602 -3.9569043 43.97391602 -2.6875 43.9453125 C-1.55526001 43.90265259 -1.55526001 43.90265259 -0.40014648 43.85913086 C1.62109375 44.16796875 1.62109375 44.16796875 3.37866211 45.47094727 C4.62109375 47.16796875 4.62109375 47.16796875 4.80859375 50.54296875 C3.39482681 54.85867835 2.17277047 56.16419389 -1.74609375 58.28515625 C-10.02591439 61.06147593 -19.07716133 59.77080017 -26.98046875 56.41015625 C-33.99524698 52.77709521 -37.94466832 47.97424179 -41.265625 40.77734375 C-44.24710423 31.11107424 -43.88074819 21.11096465 -39.37890625 12.04296875 C-38.41500302 10.39630073 -37.42863034 8.76129996 -36.37890625 7.16796875 C-35.71890625 7.16796875 -35.05890625 7.16796875 -34.37890625 7.16796875 C-34.04890625 6.17796875 -33.71890625 5.18796875 -33.37890625 4.16796875 C-23.54385812 -2.80973908 -11.02813932 -6.18998788 0 0 Z " fill="#FAFAFB" transform="translate(279.37890625,245.83203125)"/>
<path d="M0 0 C2.22872645 1.72750631 3.09425596 2.75101192 4.375 5.3125 C4.00779979 8.98450214 2.82642917 10.31440421 0.125 12.8125 C-2.876673 13.36211276 -5.77958897 13.14700229 -8.8125 12.9375 C-16.28741922 12.45089609 -16.28741922 12.45089609 -22.875 15.8125 C-23.535 15.8125 -24.195 15.8125 -24.875 15.8125 C-25.184375 16.76125 -25.49375 17.71 -25.8125 18.6875 C-26.875 21.8125 -26.875 21.8125 -27.875 23.8125 C-28.57962713 29.38020943 -28.08056693 34.25532671 -25.234375 39.1484375 C-22.64253354 42.32120894 -19.77224525 43.27436294 -15.875 43.8125 C-12.40766031 43.83657875 -8.97079269 43.83578263 -5.51074219 43.61523438 C-2.03132063 43.4643197 -0.25237158 43.53424817 2.59375 45.6328125 C4.125 47.8125 4.125 47.8125 4.375 50.75 C2.83557435 54.52159283 1.42490576 55.93142617 -2.10546875 57.890625 C-9.87598979 60.4771454 -19.19603638 60.11872382 -26.5625 56.5625 C-28.76171875 55.296875 -28.76171875 55.296875 -30.875 53.8125 C-31.7103125 53.22597656 -32.545625 52.63945312 -33.40625 52.03515625 C-39.10826997 46.90153384 -42.37556609 39.38292114 -43.42578125 31.875 C-43.56250389 24.7366388 -42.91720407 18.30916945 -39.875 11.8125 C-39.483125 10.925625 -39.09125 10.03875 -38.6875 9.125 C-30.21444237 -1.68545284 -12.43324768 -7.10151264 0 0 Z " fill="#FAFBFB" transform="translate(169.875,246.1875)"/>
<path d="M0 0 C4.49708604 2.38035416 8.34475199 5.63323671 11 10 C11.93519369 16.06959042 11.63671795 21.90859487 8 27 C4.21703167 30.70226501 1.11081524 33.13927638 -4.25 33.3125 C-8.90982768 33.25266273 -11.41212726 32.08723934 -15 29 C-19.62280935 23.75248668 -20.35331 20.6524561 -20.28125 13.76171875 C-19.75680645 8.61197444 -17.11955658 5.98627603 -13.375 2.6875 C-8.99189252 -0.42681321 -5.29764299 -0.90262389 0 0 Z " fill="#2B2F5E" transform="translate(318,258)"/>
<path d="M0 0 C3.7606784 3.48550681 6.23740565 5.96001343 6.9453125 11.21875 C7.17482713 17.40034409 6.93230306 21.64104669 2.5625 26.375 C-1.7556421 30.16973094 -5.65378651 30.67611187 -11.2265625 30.5859375 C-15.81247022 30.14841274 -18.28635634 27.68823793 -21.1875 24.375 C-24.33665307 20.17612924 -24.84334192 16.88837098 -24.78515625 11.79296875 C-24.04012928 6.61126434 -21.03849653 2.88182026 -17.3125 -0.625 C-11.4549741 -2.66240031 -5.61018206 -2.65208606 0 0 Z " fill="#2A2E5D" transform="translate(386.4375,259.625)"/>
<path d="M0 0 C4.51132126 2.6747252 8.05543595 6.07251245 10 11 C10.78590613 16.61361521 10.24234268 21.24456407 7 26 C3.00950931 29.92664284 -0.11640642 32.15032079 -5.75 32.3125 C-10.63630347 32.24913295 -13.29038005 31.35632281 -17 28 C-20.62833663 24.18069828 -21.31000458 21.11720994 -21.5 16 C-21.31000458 10.88279006 -20.62833663 7.81930172 -17 4 C-11.98337892 -0.64955124 -6.55491474 -1.39998886 0 0 Z " fill="#2A2E5D" transform="translate(448,258)"/>
<path d="M0 0 C2.78282911 1.15049825 5.39842121 2.48635416 8 4 C8 4.99 8 5.98 8 7 C7.16807129 7.30236572 7.16807129 7.30236572 6.31933594 7.61083984 C3.79532071 8.52976718 1.27265497 9.45234535 -1.25 10.375 C-2.12269531 10.69210937 -2.99539062 11.00921875 -3.89453125 11.3359375 C-4.73886719 11.6453125 -5.58320312 11.9546875 -6.453125 12.2734375 C-7.22817383 12.55622559 -8.00322266 12.83901367 -8.80175781 13.13037109 C-10.93899825 13.97586759 -12.96172668 14.94026029 -15 16 C-14.90460938 16.62648438 -14.80921875 17.25296875 -14.7109375 17.8984375 C-14.54464844 19.12433594 -14.54464844 19.12433594 -14.375 20.375 C-14.25898437 21.18710937 -14.14296875 21.99921875 -14.0234375 22.8359375 C-14.01570313 23.55007813 -14.00796875 24.26421875 -14 25 C-14.66 25.66 -15.32 26.32 -16 27 C-18.51432472 21.02847879 -19.05574734 14.64314884 -17.24609375 8.3984375 C-13.99496461 2.14077828 -6.81579481 -1.23923542 0 0 Z " fill="#303462" transform="translate(98,257)"/>
<path d="M0 0 C0.33 0 0.66 0 1 0 C1 8.91 1 17.82 1 27 C-8.24 27 -17.48 27 -27 27 C-27 26.67 -27 26.34 -27 26 C-26.07380859 25.77957031 -26.07380859 25.77957031 -25.12890625 25.5546875 C-16.57999892 23.29059332 -8.94424055 19.63083752 -3.99609375 12.01171875 C-2.10352434 8.18947073 -1.02143326 4.1272547 0 0 Z " fill="#F5F5F7" transform="translate(511,485)"/>
<path d="M0 0 C0.33 0 0.66 0 1 0 C1.14695313 0.61746094 1.29390625 1.23492187 1.4453125 1.87109375 C3.74069885 10.53815601 7.40705699 18.01653126 15.12109375 23.00390625 C18.31129577 24.69517759 21.57612141 25.85870714 25 27 C25 27.33 25 27.66 25 28 C16.75 28 8.5 28 0 28 C0 18.76 0 9.52 0 0 Z " fill="#F6F6F8" transform="translate(0,484)"/>
<path d="M0 0 C8.91 0 17.82 0 27 0 C27 8.25 27 16.5 27 25 C25.45757138 22.68635707 24.2968427 20.61395515 23.125 18.125 C19.57778174 11.01757 14.88317268 5.78930853 7.32421875 3.01953125 C4.8936494 2.28726637 2.46389386 1.60977655 0 1 C0 0.67 0 0.34 0 0 Z " fill="#F9F9FA" transform="translate(485,0)"/>
<path d="M0 0 C8.25 0 16.5 0 25 0 C22.70257517 1.53161656 20.7252941 2.62126589 18.25 3.75 C10.60774784 7.5921598 6.56401835 11.90724933 3.04296875 19.73046875 C2 22 2 22 0 25 C0 16.75 0 8.5 0 0 Z " fill="#FBFBFC" transform="translate(0,0)"/>
<path d="M0 0 C1.8125 1.125 1.8125 1.125 3 3 C3.39310741 6.14485925 3.47555213 8.13281671 1.9375 10.9375 C-1.15212727 12.63181173 -3.67217418 11.73951685 -7 11 C-8.89128342 9.10871658 -8.2366852 6.42932274 -8.328125 3.91015625 C-8.16570312 2.96462891 -8.16570312 2.96462891 -8 2 C-4.76746204 -0.15502531 -3.74849077 -0.46856135 0 0 Z " fill="#F7F7F9" transform="translate(485,290)"/>
<path d="M0 0 C3.3 0 6.6 0 10 0 C10 3.3 10 6.6 10 10 C9.46375 9.2575 8.9275 8.515 8.375 7.75 C5.85015128 4.82649095 3.24183838 3.06298806 0 1 C0 0.67 0 0.34 0 0 Z " fill="#000000" transform="translate(502,0)"/>
<path d="M0 0 C0.33 0 0.66 0 1 0 C1 3.3 1 6.6 1 10 C-2.3 10 -5.6 10 -9 10 C-8.2575 9.46375 -7.515 8.9275 -6.75 8.375 C-3.82649095 5.85015128 -2.06298806 3.24183838 0 0 Z " fill="#000000" transform="translate(511,502)"/>
<path d="M0 0 C0.53625 0.7425 1.0725 1.485 1.625 2.25 C4.14984872 5.17350905 6.75816162 6.93701194 10 9 C10 9.33 10 9.66 10 10 C6.7 10 3.4 10 0 10 C0 6.7 0 3.4 0 0 Z " fill="#000000" transform="translate(0,502)"/>
<path d="M0 0 C3.3 0 6.6 0 10 0 C9.2575 0.53625 8.515 1.0725 7.75 1.625 C4.82649095 4.14984872 3.06298806 6.75816162 1 10 C0.67 10 0.34 10 0 10 C0 6.7 0 3.4 0 0 Z " fill="#000000" transform="translate(0,0)"/>
</svg>
