<?xml version="1.0" encoding="UTF-8"?>
<svg version="1.1" xmlns="http://www.w3.org/2000/svg" width="934" height="271">
<path d="M0 0 C4.70310391 2.44953328 6.39101427 6.10914314 8 11 C8.37752342 14.32494354 8.37752342 14.32494354 8.38095093 17.83093262 C8.3856309 18.48125946 8.39031087 19.13158629 8.39513266 19.80162001 C8.4070122 21.96105873 8.39765379 24.11985447 8.38818359 26.27929688 C8.39225245 27.83545805 8.39759609 29.39161632 8.40411377 30.94776917 C8.41775588 35.16057268 8.41250161 39.37315506 8.40297651 43.5859623 C8.39536379 48.00160936 8.40243 52.41723791 8.40713501 56.83288574 C8.41258787 64.24718615 8.40541329 71.66139682 8.39111328 79.07568359 C8.37478766 87.63892481 8.3800765 96.20195172 8.3965925 104.76518774 C8.41022076 112.12675478 8.41212048 119.48825743 8.40427649 126.84983301 C8.39960734 131.24248929 8.39895423 135.63504495 8.40888596 140.0276947 C8.41757287 144.15805496 8.41150236 148.28813978 8.39420319 152.41847038 C8.39024753 153.93133526 8.39135658 155.44422344 8.39799118 156.95707893 C8.40623378 159.02805121 8.39585395 161.0981502 8.38095093 163.16906738 C8.37981985 164.32604378 8.37868877 165.48302017 8.37752342 166.67505646 C7.87530265 171.0982409 6.67465654 175.30838492 3.45703125 178.55859375 C-1.26510279 181.08229959 -4.64501181 181.6799985 -10 181 C-14.03607654 178.86773315 -16.37797786 176.6600661 -19 173 C-19.70125 173.40992188 -20.4025 173.81984375 -21.125 174.2421875 C-26.67347772 177.39336099 -31.65771017 180.0856918 -38 181 C-38.89203125 181.13277344 -39.7840625 181.26554688 -40.703125 181.40234375 C-55.89564473 183.17215299 -69.97744371 179.46591427 -82 170 C-93.21705004 160.31512712 -100.91848105 148.42918495 -102.22314453 133.43554688 C-103.09541976 117.95881393 -101.40275221 105.327316 -93 92 C-92.34 92 -91.68 92 -91 92 C-90.773125 91.46375 -90.54625 90.9275 -90.3125 90.375 C-84.09205027 79.1189481 -72.84086905 73.75555742 -61 70 C-48.63508022 66.87414828 -35.8831246 68.89257383 -24.67578125 74.61328125 C-23.79446533 75.06098877 -22.91314941 75.50869629 -22.00512695 75.9699707 C-21.34343506 76.30988037 -20.68174316 76.64979004 -20 77 C-19.99120064 75.74212173 -19.99120064 75.74212173 -19.98222351 74.45883179 C-19.92424074 66.54322871 -19.85213207 58.62790612 -19.76428509 50.71257591 C-19.71962022 46.64352792 -19.68035574 42.57457914 -19.65356445 38.50537109 C-19.62749242 34.57592069 -19.58706296 30.64685291 -19.53681374 26.71763992 C-19.52017127 25.22104285 -19.50864068 23.72437963 -19.50238609 22.22770309 C-19.49271599 20.12584384 -19.46462473 18.02495763 -19.43237305 15.92333984 C-19.42126999 14.72865082 -19.41016693 13.53396179 -19.39872742 12.30307007 C-18.9572972 8.64624869 -17.82229026 6.17611942 -16 3 C-15.34 3 -14.68 3 -14 3 C-14 2.34 -14 1.68 -14 1 C-9.37119417 -0.54293528 -4.83377215 -0.49613497 0 0 Z M-71 106 C-76.94978638 114.28026651 -77.73380233 122.03157755 -77 132 C-75.26320509 140.05010778 -70.7635883 146.02632878 -64.125 150.67578125 C-57.14854135 155.02324354 -50.17703242 156.23160241 -42 155 C-34.61191259 152.47767476 -28.03209833 148.85858586 -24 142 C-19.67117478 132.81000213 -17.33480881 125.1482602 -20.8125 115.3125 C-22.20489665 111.62611654 -23.76428555 108.2567494 -26 105 C-26.66 105 -27.32 105 -28 105 C-28 104.34 -28 103.68 -28 103 C-28.66 103 -29.32 103 -30 103 C-30 102.34 -30 101.68 -30 101 C-31.39077301 100.17886823 -32.78788893 99.36847505 -34.1875 98.5625 C-35.35345703 97.88380859 -35.35345703 97.88380859 -36.54296875 97.19140625 C-49.19766158 91.05518795 -62.03416369 96.30225868 -71 106 Z " fill="#242D5C" transform="translate(852,50)"/>
<path d="M0 0 C3.45658479 2.04573386 4.7785359 3.66780385 7 7 C7.25168228 9.95045376 7.25168228 9.95045376 7.25396729 13.635849 C7.25708727 14.3134597 7.26020725 14.99107041 7.26342177 15.68921477 C7.27141283 17.96469139 7.2650739 20.23990215 7.25878906 22.51538086 C7.26149846 24.14478207 7.26505911 25.77418206 7.26940918 27.40357971 C7.27854226 31.83331187 7.27498496 36.26295107 7.26865101 40.69268489 C7.26359491 45.32463126 7.26828145 49.95656956 7.27142334 54.58851624 C7.27506449 62.36883984 7.27026037 70.14912551 7.26074219 77.92944336 C7.24986117 86.92773511 7.25338005 95.9259362 7.264395 104.92422575 C7.2734682 112.64488722 7.27475287 120.36552139 7.26951766 128.08618647 C7.26639765 132.69955688 7.26598939 137.31288468 7.27259064 141.92625237 C7.2783638 146.26414804 7.27436772 150.60192677 7.26280212 154.9398098 C7.26015522 156.53294938 7.26092115 158.12609878 7.26532745 159.71923447 C7.27078329 161.89201211 7.2639485 164.06441375 7.25396729 166.23716736 C7.25321323 167.45372481 7.25245918 168.67028227 7.25168228 169.9237051 C7.01144859 172.86006474 6.54190184 174.52869592 5 177 C4.34 177 3.68 177 3 177 C3 177.66 3 178.32 3 179 C-1.23132084 181.11566042 -5.33752005 181.74965364 -10 181 C-14.03607654 178.86773315 -16.37797786 176.6600661 -19 173 C-19.70125 173.40992188 -20.4025 173.81984375 -21.125 174.2421875 C-26.67347772 177.39336099 -31.65771017 180.0856918 -38 181 C-38.89203125 181.13277344 -39.7840625 181.26554688 -40.703125 181.40234375 C-56.49621054 183.24211419 -70.76997496 178.98687507 -83.38671875 169.3828125 C-90.42206062 162.96792679 -97.02131447 154.193459 -99.625 144.9375 C-99.86476563 144.10089844 -100.10453125 143.26429688 -100.3515625 142.40234375 C-100.56554687 141.60957031 -100.77953125 140.81679687 -101 140 C-101.17345947 139.38833984 -101.34691895 138.77667969 -101.52563477 138.14648438 C-105.11706642 121.89539479 -101.31004623 105.38451961 -92.71484375 91.51953125 C-90.71153487 88.57617309 -88.73984329 86.28320274 -86 84 C-85.37738281 83.46117187 -84.75476563 82.92234375 -84.11328125 82.3671875 C-70.9546519 71.45284861 -57.85952977 67.8702377 -41 69 C-35.19560264 69.92680937 -30.05935836 71.41213296 -24.82006836 74.06542969 C-23.74528481 74.60813507 -23.74528481 74.60813507 -22.64878845 75.1618042 C-22.10468826 75.43840881 -21.56058807 75.71501343 -21 76 C-20.99635437 75.20343994 -20.99270874 74.40687988 -20.98895264 73.58618164 C-20.95097641 66.05373758 -20.89401557 58.52178286 -20.81609726 50.98965454 C-20.77670472 47.11792384 -20.74447637 43.24641776 -20.72900391 39.37451172 C-20.71378248 35.63299259 -20.67924163 31.89209135 -20.63169098 28.15084839 C-20.61693328 26.72847892 -20.60896222 25.30602121 -20.60811615 23.88357544 C-20.59857187 15.87831883 -20.45563702 9.79271333 -16 3 C-11.69880695 -1.17085387 -5.63977895 -0.78024009 0 0 Z M-70.4375 104.6328125 C-75.26241545 111.03731336 -77.60583644 117.2081605 -77.625 125.1875 C-77.62733643 125.92419922 -77.62967285 126.66089844 -77.63208008 127.41992188 C-77.39128256 134.78624583 -74.84622498 140.35471865 -70 146 C-69.01 146.33 -68.02 146.66 -67 147 C-67 147.66 -67 148.32 -67 149 C-65.58671871 149.81837442 -64.16921654 150.62946219 -62.75 151.4375 C-61.96109375 151.88996094 -61.1721875 152.34242188 -60.359375 152.80859375 C-54.19127505 155.92327998 -46.84281398 156.04754675 -40.234375 154.24609375 C-35.6148211 152.48264129 -31.54225724 150.54225724 -28 147 C-28 146.34 -28 145.68 -28 145 C-27.34 145 -26.68 145 -26 145 C-24.66457759 143.38692136 -24.66457759 143.38692136 -23.4375 141.3125 C-23.00308594 140.62800781 -22.56867188 139.94351563 -22.12109375 139.23828125 C-19.83107816 134.66622923 -19.83988933 130.10761537 -19.8125 125.0625 C-19.79832031 123.87785156 -19.78414062 122.69320312 -19.76953125 121.47265625 C-20.10150429 116.47055402 -21.55914496 112.40142507 -24.125 108.125 C-25.053125 106.578125 -25.053125 106.578125 -26 105 C-26.66 105 -27.32 105 -28 105 C-28 104.34 -28 103.68 -28 103 C-28.66 103 -29.32 103 -30 103 C-30 102.34 -30 101.68 -30 101 C-31.39077301 100.17886823 -32.78788893 99.36847505 -34.1875 98.5625 C-35.35345703 97.88380859 -35.35345703 97.88380859 -36.54296875 97.19140625 C-47.85058208 91.7083823 -62.28109708 95.36820266 -70.4375 104.6328125 Z " fill="#242D5C" transform="translate(733,50)"/>
<path d="M0 0 C4.39861157 2.24080212 6.99906108 4.47155929 9 9 C10.35248938 15.74268558 10.12634988 22.51885842 10.09765625 29.37109375 C10.0962413 30.64855972 10.09482635 31.9260257 10.09336853 33.24220276 C10.08873516 36.61724746 10.07977023 39.99222297 10.06866455 43.36724854 C10.05838426 46.81969611 10.05385681 50.27215087 10.04882812 53.72460938 C10.03782466 60.48309185 10.02110567 67.24154193 10 74 C11.0926416 73.58282715 12.1852832 73.1656543 13.31103516 72.73583984 C14.76198705 72.18572146 16.21299937 71.63576242 17.6640625 71.0859375 C18.38215088 70.81128662 19.10023926 70.53663574 19.84008789 70.25366211 C32.38116178 65.51401097 44.21738202 64.17565384 57 69 C59.84523727 70.4293609 62.58802747 71.90593789 65 74 C65 74.66 65 75.32 65 76 C65.598125 76.25910156 66.19625 76.51820312 66.8125 76.78515625 C72.90538851 80.16888541 76.06653383 87.32986569 78.12353516 93.70898438 C81.34161615 105.79247512 81.38467545 118.63428769 81.625 131.0625 C81.66024756 132.69027024 81.69564961 134.31803715 81.73120117 135.94580078 C81.79903391 139.15307188 81.86018924 142.36037825 81.91650391 145.56787109 C81.98615785 149.46922497 82.09024247 153.36906545 82.19921875 157.26953125 C82.23888727 159.3046512 82.27681572 161.33980629 82.3125 163.375 C82.34230957 164.26968994 82.37211914 165.16437988 82.40283203 166.08618164 C82.45624503 171.90422104 81.41102668 175.24300064 78 180 C73.9556813 182.69621247 70.74665346 182.54319098 66 182 C62.27789139 180.38169191 60.10069559 178.46614772 58 175 C57.01753096 171.88147938 56.86010787 169.00719687 56.82641602 165.74755859 C56.81292618 164.69901703 56.79943634 163.65047546 56.78553772 162.57015991 C56.76988014 160.87640732 56.76988014 160.87640732 56.75390625 159.1484375 C56.72095387 156.7460903 56.68774247 154.34374664 56.65429688 151.94140625 C56.60701103 148.16294911 56.56259912 144.38450486 56.52319336 140.60595703 C56.48323565 136.95329608 56.43173592 133.30093189 56.37890625 129.6484375 C56.3704921 128.53141449 56.36207794 127.41439148 56.35340881 126.26351929 C56.21153772 117.16359383 55.44169762 109.07581385 51 101 C51 100.34 51 99.68 51 99 C50.34 99 49.68 99 49 99 C49 98.34 49 97.68 49 97 C48.278125 96.71125 47.55625 96.4225 46.8125 96.125 C44 95 44 95 41.6875 93.8125 C36.1942223 92.15174162 31.55559443 93.54798633 26.625 96.0625 C25.65433594 96.60583984 25.65433594 96.60583984 24.6640625 97.16015625 C23 98 23 98 21 98 C21 98.66 21 99.32 21 100 C19.88625 101.0828125 19.88625 101.0828125 18.75 102.1875 C13.39783264 107.66130752 9.75565357 114.4430552 9.74462891 122.19824219 C9.73419052 123.71572052 9.73419052 123.71572052 9.72354126 125.26385498 C9.72453827 126.34725159 9.72553528 127.43064819 9.7265625 128.546875 C9.70626866 130.8593798 9.68541779 133.17187976 9.6640625 135.484375 C9.64150018 139.11592695 9.62500438 142.74728751 9.61914062 146.37890625 C9.60957949 149.893578 9.57575325 153.40739599 9.5390625 156.921875 C9.54410797 157.99717468 9.54915344 159.07247437 9.55435181 160.18035889 C9.45673278 167.71903859 8.2413611 174.17982442 3.25 180.0625 C-1.14973388 181.89572245 -5.27594345 181.56132074 -9.6875 180.125 C-15.32868011 174.94121288 -17.29209535 168.47872653 -17.62145996 160.96688843 C-17.64494975 158.22916694 -17.64206478 155.50004656 -17.61523438 152.76318359 C-17.61874175 151.24760824 -17.62440726 149.73203659 -17.63204956 148.21647644 C-17.64621642 144.12757086 -17.6293179 140.03934432 -17.60576439 135.95050383 C-17.58555717 131.65813761 -17.59153993 127.36579689 -17.59387207 123.07339478 C-17.59381862 115.86945488 -17.57412971 108.6657783 -17.54199219 101.46191406 C-17.50507651 93.14684458 -17.49632176 84.83211937 -17.5032897 76.51697862 C-17.50960533 68.49721999 -17.4988226 60.47757871 -17.47932434 52.45784378 C-17.47117429 49.05373073 -17.46843635 45.64967786 -17.47001648 42.24555588 C-17.47089858 38.23495092 -17.45659232 34.22467063 -17.43078995 30.21415138 C-17.42365861 28.74686699 -17.42152984 27.27954797 -17.42490768 25.81225014 C-17.45547048 9.40034248 -17.45547048 9.40034248 -12.76067352 3.42178917 C-8.89431604 -0.37412693 -5.11133358 -1.10184436 0 0 Z " fill="#252E5C" transform="translate(332,50)"/>
<path d="M0 0 C0 0.66 0 1.32 0 2 C0.89332031 2.38478516 0.89332031 2.38478516 1.8046875 2.77734375 C4.19696371 4.10969687 5.42728199 5.43368605 7.125 7.5625 C9.20903634 10.21025666 9.20903634 10.21025666 12 12 C12 12.66 12 13.32 12 14 C12.66 14 13.32 14 14 14 C16.625 16.375 16.625 16.375 19 19 C19 19.66 19 20.32 19 21 C19.66 21 20.32 21 21 21 C24.84970686 27.81503882 24.43374123 34.54513523 24.3984375 42.21875 C24.40046182 43.60445305 24.40337624 44.99015506 24.40713501 46.37585449 C24.41154157 49.27069305 24.40518166 52.16525264 24.39111328 55.06005859 C24.37402198 58.75534017 24.38387221 62.44996789 24.40183067 66.14522552 C24.412714 69.00385389 24.40920147 71.86232935 24.4014473 74.72096252 C24.39849627 76.74102202 24.40754607 78.76108766 24.4168396 80.78112793 C24.32818916 92.38857591 24.32818916 92.38857591 21 98 C17.65010968 101.11061244 14.98726507 102.26581613 10.5 102.5 C6.0452361 102.29001113 3.42037054 100.93174618 0 98 C-1.875 95.75 -1.875 95.75 -3 94 C-3.7425 94.5775 -4.485 95.155 -5.25 95.75 C-17.41240616 103.56071955 -32.83290419 103.89303667 -46.734375 101.3046875 C-53.208156 99.30888455 -59.62905066 96.15892095 -65 92 C-65 91.34 -65 90.68 -65 90 C-65.57878906 89.75378906 -66.15757812 89.50757813 -66.75390625 89.25390625 C-75.43452857 84.40785448 -80.90881681 73.92607011 -83.75 64.75 C-84.19297721 63.17382528 -84.61034899 61.59019736 -85 60 C-85.185625 59.24332031 -85.37125 58.48664063 -85.5625 57.70703125 C-88.25634033 41.03889419 -84.52463776 25.5846941 -75.37109375 11.4921875 C-56.47760986 -14.37128232 -25.81770756 -13.94003441 0 0 Z M-55 27 C-60.73943783 35.25350782 -62.40170432 43.05740241 -61 53 C-60.0489802 56.29014424 -58.74502079 59.0632577 -57 62 C-56.443125 63.051875 -55.88625 64.10375 -55.3125 65.1875 C-50.98785402 70.44720457 -44.73211284 74.67997787 -38 76 C-29.09969087 76.82914088 -21.2027364 76.03436758 -13.96484375 70.421875 C-6.75348 63.62390153 -3.59862172 55.98621718 -2.625 46.25 C-2.80357876 39.32663902 -5.30965103 31.17046343 -10 26 C-10.66 26 -11.32 26 -12 26 C-12 25.34 -12 24.68 -12 24 C-12.66 24 -13.32 24 -14 24 C-14 23.34 -14 22.68 -14 22 C-15.58074564 21.18247697 -17.16471223 20.37118003 -18.75 19.5625 C-19.63171875 19.11003906 -20.5134375 18.65757812 -21.421875 18.19140625 C-33.45362613 12.63127884 -46.67380422 17.16156781 -55 27 Z " fill="#242D5C" transform="translate(598,130)"/>
<path d="M0 0 C5.63247537 4.35352231 5.63247537 4.35352231 8 7 C8 7.66 8 8.32 8 9 C9.485 9.495 9.485 9.495 11 10 C12.75390625 12.29296875 12.75390625 12.29296875 14.5625 15.1875 C15.16191406 16.12980469 15.76132813 17.07210937 16.37890625 18.04296875 C20.16550366 24.9500874 21.20685367 32.13893872 20.875 39.9375 C19.60387071 42.93373332 17.87240723 43.49499621 15 45 C12.38992906 45.95683881 9.80515708 46.84119626 7.15625 47.671875 C6.39813019 47.9154776 5.64001038 48.1590802 4.85891724 48.4100647 C2.40789269 49.19629785 -0.0458254 49.97366056 -2.5 50.75 C-5.8574891 51.81806663 -9.21404493 52.88903924 -12.5703125 53.9609375 C-13.39173737 54.22262726 -14.21316223 54.48431702 -15.05947876 54.75393677 C-19.68948027 56.23564675 -24.28889691 57.77765664 -28.8671875 59.4140625 C-30.29901367 59.92114746 -30.29901367 59.92114746 -31.75976562 60.43847656 C-33.44397424 61.04159683 -35.12295336 61.65963277 -36.79492188 62.29589844 C-41.79540931 64.06863916 -44.97240691 64.3233101 -50 62 C-53.35784309 58.02962729 -55.2591686 52.80391607 -55.6875 47.625 C-55 44 -55 44 -52.44311523 41.95532227 C-48.80747788 39.89066797 -45.16757323 38.41720041 -41.22265625 37.08984375 C-40.49308212 36.83626602 -39.763508 36.58268829 -39.01182556 36.32142639 C-36.69807098 35.51873497 -34.3805857 34.72758631 -32.0625 33.9375 C-29.74876157 33.1417673 -27.43590457 32.34357815 -25.12388611 31.54286194 C-23.69141919 31.04750815 -22.25785852 30.55530128 -20.82301331 30.06687927 C-16.45337301 28.56509324 -12.22763455 26.86570859 -8 25 C-13.31394847 18.58661391 -20.93480902 15.17550323 -29.125 14 C-37.26745223 13.57484031 -43.18069812 16.69447294 -49.46875 21.59765625 C-51.12007435 22.94217435 -51.12007435 22.94217435 -52 25 C-52.66 25 -53.32 25 -54 25 C-54.28875 25.721875 -54.5775 26.44375 -54.875 27.1875 C-55.56384431 28.90961077 -56.27491841 30.6232883 -57.0234375 32.3203125 C-60.1858269 40.99790902 -59.46006686 50.68056219 -56.1484375 59.1875 C-52.82166776 66.32788383 -48.81448029 71.31512246 -41.3828125 74.24609375 C-31.86551709 77.25730361 -23.1234189 75.3739156 -13.8125 72.375 C-8.29524028 70.6585192 -3.54378829 69.7834056 1.875 72.375 C5.91711201 75.46602683 5.91711201 75.46602683 6.37109375 78.390625 C6.57247455 87.06184546 6.57247455 87.06184546 3.625 90.6875 C1 93 1 93 -1 93 C-1 93.66 -1 94.32 -1 95 C-2.155 95.61875 -3.31 96.2375 -4.5 96.875 C-5.1496875 97.22304687 -5.799375 97.57109375 -6.46875 97.9296875 C-19.37764965 103.38808025 -37.30129117 103.15594583 -50.3515625 98.2578125 C-66.16294033 90.74857406 -78.2506989 77.30136428 -84.1171875 60.87109375 C-85.2467772 55.91789289 -85.32975685 51.25065954 -85.3125 46.1875 C-85.32861328 45.25357422 -85.34472656 44.31964844 -85.36132812 43.35742188 C-85.37194076 28.06461654 -78.38611862 14.41186255 -67.84765625 3.5078125 C-47.79307266 -14.15342573 -21.62981785 -15.35745194 0 0 Z " fill="#242D5C" transform="translate(193,130)"/>
<path d="M0 0 C5.59568353 3.46932379 8.26066267 7.67346299 10 14 C10.47296101 19.5339335 10.37982172 25.01507088 10.25 30.5625 C10.2298987 32.06312713 10.21165436 33.56378034 10.1953125 35.06445312 C10.15161687 38.71018483 10.08279202 42.35492199 10 46 C10.70084717 45.98428955 11.40169434 45.9685791 12.1237793 45.95239258 C15.31160351 45.88987588 18.49929851 45.85095619 21.6875 45.8125 C22.79029297 45.78736328 23.89308594 45.76222656 25.02929688 45.73632812 C26.09599609 45.72666016 27.16269531 45.71699219 28.26171875 45.70703125 C29.24100342 45.6913208 30.22028809 45.67561035 31.22924805 45.65942383 C34.5159287 46.06341709 36.34341112 47.05164304 39 49 C41.88402967 53.37576915 42.64987517 56.80099864 42 62 C39.86219061 66.44664354 37.73521179 68.56869405 33.15991211 70.41552734 C28.86167736 71.57863054 24.48034182 71.30526885 20.0625 71.1875 C19.09248047 71.17396484 18.12246094 71.16042969 17.12304688 71.14648438 C14.74810871 71.11138677 12.37435622 71.06222275 10 71 C10.09249228 77.86873269 10.19982689 84.73711962 10.31738281 91.60546875 C10.35561754 93.94102748 10.39047995 96.276644 10.421875 98.61230469 C10.4676447 101.97351705 10.52562036 105.33433355 10.5859375 108.6953125 C10.60326431 110.25658371 10.60326431 110.25658371 10.62094116 111.84939575 C10.72413161 116.94181579 10.97612177 121.23500951 13 126 C13.66 126 14.32 126 15 126 C15.9590625 127.1446875 15.9590625 127.1446875 16.9375 128.3125 C19.49974763 131.04301464 21.89051386 131.65956783 25.5 132.5 C31.4193541 133.9180956 34.1514413 136.10660378 37.4375 141.25 C38.45941636 146.24603556 37.43043977 150.51448408 34.8984375 154.9140625 C31.54836446 158.69409144 28.0056243 159.39765811 23.03833008 159.70800781 C12.80442429 159.9010792 5.16950146 157.15807726 -2.875 150.6875 C-8.02140081 144.17881662 -11.94950743 138.10194624 -14 130 C-14.16275421 129.40582779 -14.32550842 128.81165558 -14.49319458 128.19947815 C-16.10423762 121.81374643 -16.25999149 115.74535635 -16.1953125 109.18359375 C-16.1924826 108.08652603 -16.18965271 106.98945831 -16.18673706 105.85914612 C-16.17561997 102.38514902 -16.15053112 98.91141803 -16.125 95.4375 C-16.11495925 93.0696652 -16.10583532 90.70182633 -16.09765625 88.33398438 C-16.07570844 82.55590012 -16.04231609 76.77796908 -16 71 C-16.61560791 70.94956543 -17.23121582 70.89913086 -17.86547852 70.84716797 C-18.67428467 70.77127441 -19.48309082 70.69538086 -20.31640625 70.6171875 C-21.11763916 70.54612793 -21.91887207 70.47506836 -22.74438477 70.40185547 C-25.99800053 69.82219841 -27.73152419 68.3372175 -30 66 C-32.69248399 61.96127401 -32.67205444 58.74486631 -32 54 C-29.9949912 50.1973971 -28.57313738 48.38209159 -25 46 C-22.51953125 45.8046875 -22.51953125 45.8046875 -19.8125 45.875 C-18.91144531 45.89304688 -18.01039062 45.91109375 -17.08203125 45.9296875 C-16.39496094 45.95289063 -15.70789063 45.97609375 -15 46 C-15.15936035 45.46713379 -15.3187207 44.93426758 -15.48291016 44.38525391 C-16.61557928 39.16042987 -16.31493086 33.69930972 -16.375 28.375 C-16.41238281 27.14136719 -16.44976562 25.90773438 -16.48828125 24.63671875 C-16.57757794 15.3002537 -15.02237814 8.33179185 -8.5625 1.375 C-5.30334613 -0.37381427 -3.65037721 -0.67047745 0 0 Z " fill="#242D5B" transform="translate(63,72)"/>
<path d="M0 0 C2.48822721 2.30536537 4.06669457 4.28850042 5.48828125 7.37890625 C5.40494278 12.12919923 4.47085242 15.65069229 1.48828125 19.37890625 C-2.04046142 21.1492383 -4.38149781 21.55998887 -8.26171875 21.00390625 C-21.55449018 19.54691777 -34.1700118 18.5283246 -45.32421875 27.06640625 C-51.472297 32.80751951 -54.25099406 39.66903562 -54.62890625 47.9453125 C-54.82922859 56.12514137 -53.24400696 62.08397929 -49.51171875 69.37890625 C-49.51171875 70.03890625 -49.51171875 70.69890625 -49.51171875 71.37890625 C-48.85171875 71.37890625 -48.19171875 71.37890625 -47.51171875 71.37890625 C-46.78984375 72.14203125 -46.06796875 72.90515625 -45.32421875 73.69140625 C-39.16204841 79.57970235 -31.91274725 80.56081293 -23.7578125 80.48046875 C-21.32448558 80.40961515 -21.32448558 80.40961515 -18.19921875 79.87890625 C-3.96282115 77.94854725 -3.96282115 77.94854725 1.11328125 81.12890625 C4.3500427 84.19531184 5.28956106 85.85538482 5.86328125 90.25390625 C5.29913113 94.95515727 3.42203487 97.82591385 -0.27734375 100.796875 C-7.95839841 105.95285854 -15.72431804 106.74884388 -24.76171875 106.69140625 C-25.68903809 106.6857666 -26.61635742 106.68012695 -27.57177734 106.67431641 C-40.75199981 106.44146658 -50.58134041 102.66582515 -61.51171875 95.37890625 C-61.51171875 94.71890625 -61.51171875 94.05890625 -61.51171875 93.37890625 C-62.99671875 92.88390625 -62.99671875 92.88390625 -64.51171875 92.37890625 C-64.51171875 91.71890625 -64.51171875 91.05890625 -64.51171875 90.37890625 C-65.17171875 90.37890625 -65.83171875 90.37890625 -66.51171875 90.37890625 C-66.51171875 89.71890625 -66.51171875 89.05890625 -66.51171875 88.37890625 C-67.17171875 88.37890625 -67.83171875 88.37890625 -68.51171875 88.37890625 C-76.1530012 78.94760046 -81.21292502 66.56049664 -81.51171875 54.37890625 C-81.53878906 53.65445313 -81.56585938 52.93 -81.59375 52.18359375 C-81.63735519 49.90819587 -81.59294112 47.65313252 -81.51171875 45.37890625 C-81.49496094 44.6209375 -81.47820312 43.86296875 -81.4609375 43.08203125 C-80.78857179 31.32523661 -75.91189118 19.51262033 -68.51171875 10.37890625 C-67.85171875 10.37890625 -67.19171875 10.37890625 -66.51171875 10.37890625 C-66.51171875 9.71890625 -66.51171875 9.05890625 -66.51171875 8.37890625 C-50.88163729 -6.93541599 -18.9213012 -14.05462506 0 0 Z " fill="#242D5C" transform="translate(505.51171875,125.62109375)"/>
<path d="M0 0 C0 0.66 0 1.32 0 2 C0.66 2 1.32 2 2 2 C3.50186547 6.50559641 3.71589695 10.34213337 1.8125 14.75 C-0.42810475 17.53144038 -1.61764156 18.73161558 -5 20 C-7.57560444 19.9490438 -10.0752158 19.64828021 -12.6328125 19.33984375 C-23.68554076 18.22431317 -35.63193809 17.25782624 -44.9375 24.1875 C-45.618125 24.785625 -46.29875 25.38375 -47 26 C-47.66 26 -48.32 26 -49 26 C-49.433125 26.87591797 -49.433125 26.87591797 -49.875 27.76953125 C-50.56218384 29.13196865 -51.26649707 30.48614896 -52 31.82421875 C-56.29096006 39.81948417 -57.7913442 47.05833231 -56 56 C-55.75443359 57.24136719 -55.75443359 57.24136719 -55.50390625 58.5078125 C-53.9043345 65.00545176 -51.17652288 69.69782264 -46 74 C-36.85682248 79.31938658 -28.45956308 79.63577212 -18.17578125 78.234375 C-12.72029936 77.64671088 -7.24403482 77.14058241 -2.0625 79.125 C0.62183953 81.56530866 2.34721556 83.75799975 4 87 C4.20950405 91.92334513 2.08794777 94.89547617 -1.12109375 98.390625 C-10.88198786 106.75130769 -24.98556754 105.69944543 -37 105 C-50.92768543 102.99982554 -62.38493845 96.0096852 -71.37109375 85.23046875 C-82.2054266 70.39496741 -84.8093103 53.9098232 -82.3125 35.9375 C-80.49262711 26.29090105 -76.46173713 16.5039528 -70 9 C-69.34 9 -68.68 9 -68 9 C-67.67 8.01 -67.34 7.02 -67 6 C-66.34 6 -65.68 6 -65 6 C-65 5.34 -65 4.68 -65 4 C-64.34 4 -63.68 4 -63 4 C-63 3.34 -63 2.68 -63 2 C-43.09439744 -8.73953463 -20.22658873 -13.48439249 0 0 Z " fill="#242D5C" transform="translate(304,127)"/>
<path d="M0 0 C2.69990662 1.79993774 4.5418865 3.083773 6 6 C6.53118252 10.91996928 6.75105553 14.77327597 4.125 19.0625 C1.40173448 21.54547739 0.46585316 21.95520643 -3.25 22.3125 C-7.63436813 21.94713599 -9.61562477 20.73973233 -13 18 C-14.17635297 15.64729407 -14.13359359 14.179248 -14.125 11.5625 C-14.12757813 10.78003906 -14.13015625 9.99757812 -14.1328125 9.19140625 C-14 7 -14 7 -13 4 C-12.34 4 -11.68 4 -11 4 C-11 3.34 -11 2.68 -11 2 C-7.17369543 0.19938608 -4.22501011 -0.52812626 0 0 Z " fill="#242D5C" transform="translate(882,205)"/>
</svg>
