<?xml version="1.0" encoding="UTF-8"?>
<svg version="1.1" xmlns="http://www.w3.org/2000/svg" width="1152" height="1152">
<path d="M0 0 C380.16 0 760.32 0 1152 0 C1152 380.16 1152 760.32 1152 1152 C771.84 1152 391.68 1152 0 1152 C0 771.84 0 391.68 0 0 Z " fill="#282C5C" transform="translate(0,0)"/>
<path d="M0 0 C3.34625024 2.52676039 4.67977847 4.03933542 6 8 C6.09625229 9.6991987 6.13493071 11.40192233 6.14044189 13.10383606 C6.14615204 14.1594725 6.15186218 15.21510895 6.15774536 16.30273438 C6.15942215 18.03970581 6.15942215 18.03970581 6.16113281 19.81176758 C6.16858017 21.6413929 6.16858017 21.6413929 6.17617798 23.50798035 C6.18828768 26.85522225 6.19574509 30.20240168 6.20018864 33.54965806 C6.20312111 35.6417526 6.20722626 37.73384167 6.21169281 39.82593346 C6.22536558 46.37412611 6.23503315 52.92230627 6.2388947 59.47051221 C6.24337419 67.0247186 6.2609178 74.57874394 6.2898953 82.13289529 C6.31152619 87.97504318 6.32159974 93.81714018 6.32293582 99.65932769 C6.3239829 103.14716567 6.32986985 106.63483341 6.34775543 110.12262917 C6.36732828 114.01516154 6.36294151 117.90746844 6.35644531 121.80004883 C6.3656601 122.95195709 6.37487488 124.10386536 6.3843689 125.29067993 C6.35491104 130.91918125 6.28151075 135.18415937 3 140 C0.08775853 142.3729375 -3.26183618 142.46468815 -6.9609375 142.40234375 C-10.56008123 141.69216788 -12.450853 139.549147 -15 137 C-15.69996094 137.28617188 -16.39992188 137.57234375 -17.12109375 137.8671875 C-30.9406918 143.3050212 -41.62979474 145.06978817 -55.73046875 139.55078125 C-60.4545009 137.31011128 -64.2276611 134.60051394 -68 131 C-68.55042969 130.47792969 -69.10085938 129.95585938 -69.66796875 129.41796875 C-78.89779214 119.6661502 -81.49688403 108.2235148 -81.2890625 95.2265625 C-80.91202928 86.85185485 -77.81112104 79.36015927 -74 72 C-73.01 72 -72.02 72 -71 72 C-70.835 71.319375 -70.67 70.63875 -70.5 69.9375 C-65.92333093 60.97485641 -56.09266894 57.03088965 -47 54 C-35.51925314 53.13218642 -26.34634041 54.76588841 -16 60 C-16.00888245 59.34933563 -16.01776489 58.69867126 -16.0269165 58.02828979 C-16.11550834 51.24746498 -16.17578373 44.46680496 -16.21972656 37.68554688 C-16.23982405 35.15585653 -16.26710668 32.62621254 -16.30175781 30.09667969 C-16.35035556 26.45756583 -16.37298812 22.819067 -16.390625 19.1796875 C-16.42159271 17.48717361 -16.42159271 17.48717361 -16.45318604 15.76046753 C-16.45495505 9.55010002 -16.26755323 5.67526229 -12 1 C-8.28289437 -0.85855282 -4.04722719 -0.57908439 0 0 Z " fill="#FCFCFD" transform="translate(880,504)"/>
<path d="M0 0 C0.83402344 -0.0309375 1.66804687 -0.061875 2.52734375 -0.09375 C5.33593934 0.56404126 7.01063355 1.54277902 8.99936295 3.63892746 C11.44239283 7.91556876 10.71117759 13.26861449 10.64599609 18.04541016 C10.64833252 19.31903915 10.65066895 20.59266815 10.65307617 21.90489197 C10.65877394 25.39055629 10.63352089 28.87538155 10.60240126 32.3608861 C10.57482218 36.00963417 10.57485955 39.65838441 10.57168579 43.30722046 C10.56248831 49.43217454 10.53497474 55.55681579 10.49462891 61.68164062 C10.43776821 70.32148954 10.41547186 78.96118124 10.39934421 87.60118794 C10.38689109 93.58555661 10.36621505 99.56990143 10.3439641 105.5542407 C10.3386021 107.00541463 10.33346557 108.4565894 10.32855177 109.90776491 C10.31205926 114.67637563 10.28607257 119.44483813 10.25537109 124.21337891 C10.25111115 125.4196846 10.2468512 126.6259903 10.24246216 127.86885071 C10.23386169 128.96800308 10.22526123 130.06715546 10.21640015 131.19961548 C10.21082785 132.15639505 10.20525555 133.11317463 10.19951439 134.09894753 C10.0625 136.5 10.0625 136.5 9.0625 139.5 C8.4025 139.5 7.7425 139.5 7.0625 139.5 C7.0625 140.16 7.0625 140.82 7.0625 141.5 C3.01427233 142.84940922 -0.70992051 143.19595879 -4.9375 142.5 C-8 140 -8 140 -9.9375 137.5 C-13.120365 138.4851725 -16.02693312 139.54562914 -19 141.0625 C-27.20581516 145.07811167 -37.4945152 144.55146146 -46.0625 141.9375 C-59.73303439 136.74341833 -67.92258292 128.76104538 -73.9375 115.4375 C-77.76371058 104.60518761 -77.68891111 91.04275371 -72.9375 80.5 C-72.52371094 79.57703125 -72.10992188 78.6540625 -71.68359375 77.703125 C-65.82639437 65.89296822 -56.80117836 60.51761307 -44.9375 55.5 C-33.78937715 52.50058281 -23.072676 54.432412 -12.9375 59.5 C-12.93163376 58.91641724 -12.92576752 58.33283447 -12.91972351 57.73156738 C-12.85555171 51.6312798 -12.77107176 45.5315082 -12.67504883 39.43164062 C-12.64189285 37.15827254 -12.61383217 34.88482398 -12.59106445 32.61132812 C-12.5573471 29.33428815 -12.50502158 26.05797944 -12.44921875 22.78125 C-12.43963387 21.26827332 -12.43963387 21.26827332 -12.42985535 19.72473145 C-12.29343604 13.10580982 -11.86275688 6.56513403 -7.05859375 1.53125 C-4.56160871 0.31724622 -2.77360018 0.03418922 0 0 Z " fill="#FCFDFD" transform="translate(781.9375,503.5)"/>
<path d="M0 0 C0.71027344 0.49113281 1.42054688 0.98226562 2.15234375 1.48828125 C2.15234375 2.14828125 2.15234375 2.80828125 2.15234375 3.48828125 C2.70921875 3.71515625 3.26609375 3.94203125 3.83984375 4.17578125 C6.81393963 5.86378161 8.8724324 7.95504642 11.15234375 10.48828125 C11.15234375 11.14828125 11.15234375 11.80828125 11.15234375 12.48828125 C11.79171875 12.75640625 12.43109375 13.02453125 13.08984375 13.30078125 C15.15234375 14.48828125 15.15234375 14.48828125 16.15234375 17.48828125 C17.63734375 17.98328125 17.63734375 17.98328125 19.15234375 18.48828125 C20.91930814 21.88232209 21.40920507 24.75697203 21.44287109 28.55053711 C21.4556308 29.5318309 21.4683905 30.51312469 21.48153687 31.52415466 C21.48376251 32.57321487 21.48598816 33.62227509 21.48828125 34.703125 C21.49826645 36.3358712 21.49826645 36.3358712 21.50845337 38.00160217 C21.51856498 40.30044874 21.52327085 42.59932457 21.52294922 44.89819336 C21.52732388 48.409835 21.56366506 51.92022108 21.6015625 55.43164062 C21.60743067 57.66796446 21.61140006 59.90429425 21.61328125 62.140625 C21.62765228 63.18766098 21.64202332 64.23469696 21.65682983 65.3134613 C21.61903516 71.36014516 21.18529067 74.88129483 17.15234375 79.48828125 C14.169369 81.83204712 10.87365218 81.95368644 7.125 81.890625 C3.80924406 81.2143421 2.1911179 79.03674894 0.15234375 76.48828125 C-0.65203125 76.75640625 -1.45640625 77.02453125 -2.28515625 77.30078125 C-3.46078125 77.69265625 -4.63640625 78.08453125 -5.84765625 78.48828125 C-6.49976074 78.73586182 -7.15186523 78.98344238 -7.82373047 79.23852539 C-13.45635106 81.30339143 -18.54724362 82.0992086 -24.53515625 82.11328125 C-25.39786133 82.11779297 -26.26056641 82.12230469 -27.14941406 82.12695312 C-35.65321093 81.90607528 -41.76514302 79.08487924 -48.84765625 74.48828125 C-48.84765625 73.49828125 -48.84765625 72.50828125 -48.84765625 71.48828125 C-49.89953125 71.20984375 -49.89953125 71.20984375 -50.97265625 70.92578125 C-58.63597269 67.09412303 -61.90427882 59.1457532 -64.84765625 51.48828125 C-68.61955145 38.29257071 -65.86543049 24.70402436 -59.4609375 12.94140625 C-46.62058914 -8.02529957 -20.78405433 -11.03351032 0 0 Z " fill="#FBF6F7" transform="translate(678.84765625,565.51171875)"/>
<path d="M0 0 C3.57336076 2.17508916 5.4318842 4.16615673 7 8 C7.2784729 10.34124756 7.2784729 10.34124756 7.31884766 12.95214844 C7.33871735 13.93286316 7.35858704 14.91357788 7.37905884 15.92401123 C7.39061005 16.97518127 7.40216125 18.02635132 7.4140625 19.109375 C7.43342865 20.19132141 7.4527948 21.27326782 7.4727478 22.38800049 C7.53250237 25.84192026 7.57891297 29.29587344 7.625 32.75 C7.66318353 35.09246241 7.70223548 37.43491084 7.7421875 39.77734375 C7.83820056 45.51810499 7.92326027 51.25895053 8 57 C8.99217529 56.64558838 9.98435059 56.29117676 11.0065918 55.92602539 C12.34146022 55.46190191 13.67651256 54.99830713 15.01171875 54.53515625 C15.66168823 54.30139282 16.31165771 54.06762939 16.98132324 53.82678223 C26.72220015 50.48146098 36.60303971 50.70681073 46.14453125 54.734375 C48.34834403 56.23760729 48.92919421 57.59924364 50 60 C50.61875 60.309375 51.2375 60.61875 51.875 60.9375 C57.56191423 63.78095712 59.16199376 69.5652654 61.16796875 75.18359375 C63.2089536 82.09227956 63.17582557 88.85666317 63.203125 96.00390625 C63.20882507 97.15994858 63.21452515 98.31599091 63.22039795 99.50706482 C63.22982288 101.94537446 63.23637194 104.38369669 63.24023438 106.82202148 C63.24997466 110.55279543 63.28103643 114.28302626 63.3125 118.01367188 C63.31902724 120.3854134 63.32427881 122.75715886 63.328125 125.12890625 C63.3404718 126.2435878 63.3528186 127.35826935 63.36553955 128.50672913 C63.36253845 129.54808517 63.35953735 130.58944122 63.35644531 131.66235352 C63.36191376 133.03086205 63.36191376 133.03086205 63.36749268 134.42701721 C62.91660243 137.58390419 61.90113565 139.4553331 60 142 C56.39427296 143.20190901 53.7897565 143.32670315 50 143 C45.95009975 140.57005985 44.31951823 138.47468161 43 134 C42.70273948 130.60083194 42.69909714 127.21135701 42.69140625 123.80078125 C42.66623522 121.76627331 42.64083737 119.73176817 42.61523438 117.69726562 C42.5865837 114.50920408 42.56255139 111.32119131 42.54370117 108.13305664 C42.52188358 105.04287115 42.48242295 101.95326322 42.44140625 98.86328125 C42.44129044 97.92438553 42.44117462 96.98548981 42.4410553 96.0181427 C42.34604891 89.57890428 41.15218326 84.06487099 39 78 C38.34 78 37.68 78 37 78 C36.67 77.34 36.34 76.68 36 76 C32.39414645 73.40378545 28.26495852 73.43407281 24 74 C20.69898869 75.39924945 20.69898869 75.39924945 18 77 C17.34 77 16.68 77 16 77 C15.7525 77.556875 15.505 78.11375 15.25 78.6875 C14 81 14 81 12 83.4375 C7.90964372 88.67826899 7.70855224 93.30125504 7.69140625 99.703125 C7.66623668 101.42318033 7.6408388 103.14323234 7.61523438 104.86328125 C7.58658682 107.5532131 7.56254844 110.24308696 7.54370117 112.93310547 C7.52186563 115.54425229 7.4824078 118.15471856 7.44140625 120.765625 C7.44129044 121.55656555 7.44117462 122.3475061 7.4410553 123.16241455 C7.33492105 129.24135484 6.61047708 135.94298505 2.52662659 140.72540283 C-0.05025349 142.87686808 -2.5418698 142.58959367 -5.77734375 142.484375 C-8 142 -8 142 -10.9375 139.3125 C-13.78896712 134.73287099 -15.24695436 131.22549341 -15.26742554 125.8142395 C-15.27595551 124.79095551 -15.28448547 123.76767151 -15.29327393 122.71337891 C-15.29236755 121.6015625 -15.29146118 120.48974609 -15.29052734 119.34423828 C-15.29724457 118.16481659 -15.30396179 116.9853949 -15.31088257 115.77023315 C-15.32660775 112.54284914 -15.33323655 109.31561972 -15.33451414 106.088202 C-15.33593811 104.06944972 -15.34021234 102.05072422 -15.34550858 100.03197861 C-15.36399786 92.98240198 -15.37218054 85.93290086 -15.37060547 78.88330078 C-15.36940425 72.3229363 -15.39050524 65.7629009 -15.4220928 59.20261967 C-15.4482851 53.56082689 -15.45897154 47.9191414 -15.45769465 42.27728832 C-15.45718589 38.91180328 -15.46282078 35.54661088 -15.48405075 32.18118668 C-15.50365256 28.42536375 -15.49789449 24.67038742 -15.48583984 20.91455078 C-15.49707886 19.80678284 -15.50831787 18.69901489 -15.51989746 17.55767822 C-15.46774037 11.16051414 -14.8741867 7.17305458 -11 2 C-7.3078813 -0.46141247 -4.28645195 -0.68650207 0 0 Z " fill="#FAFAFB" transform="translate(473,504)"/>
<path d="M0 0 C5.43390272 3.74442789 5.43390272 3.74442789 7.890625 6.05859375 C7.890625 7.04859375 7.890625 8.03859375 7.890625 9.05859375 C8.49648438 9.31253906 9.10234375 9.56648437 9.7265625 9.828125 C14.34121463 12.45197955 16.40396803 17.76084182 18.203125 22.55859375 C19.03134533 26.77498815 19.45293877 29.77095127 18.890625 34.05859375 C14.47114551 37.69034494 9.79985948 39.33196294 4.38671875 41.00390625 C3.58581314 41.25985565 2.78490753 41.51580505 1.95973206 41.7795105 C-0.58141608 42.58976126 -3.12638005 43.38711651 -5.671875 44.18359375 C-8.22003474 44.98984836 -10.76733355 45.79875056 -13.31419373 46.60910034 C-14.89371044 47.11069993 -16.47412649 47.60947901 -18.05555725 48.10501099 C-21.06681201 49.05382615 -24.01198551 50.01924836 -26.94116211 51.20263672 C-29.86796184 52.35806514 -31.99242913 52.45650173 -35.109375 52.05859375 C-38.4224906 49.57375705 -40.00267178 47.0242803 -41.109375 43.05859375 C-41.18583665 40.72651355 -41.20080799 38.39013497 -41.109375 36.05859375 C-34.58354293 31.91106492 -27.54799364 29.47965782 -20.296875 26.87109375 C-17.85256312 25.98259973 -15.40853734 25.09331813 -12.96484375 24.203125 C-11.88871826 23.81487549 -10.81259277 23.42662598 -9.70385742 23.02661133 C-7.17301484 22.13472068 -7.17301484 22.13472068 -5.109375 21.05859375 C-11.21152593 15.69609748 -16.56122637 13.44601986 -24.6171875 13.703125 C-28.64600161 14.27776777 -31.71793035 15.87837934 -35.109375 18.05859375 C-36.5015625 18.92484375 -36.5015625 18.92484375 -37.921875 19.80859375 C-42.30949469 24.321574 -43.28647074 29.35018894 -43.484375 35.43359375 C-43.2139446 43.91099883 -41.33791184 51.1197563 -35.109375 57.05859375 C-28.57518217 60.95863192 -22.52744918 60.7087171 -15.109375 60.05859375 C-12.66755458 59.43560731 -10.40942068 58.65053273 -8.0625 57.7421875 C-3.48137399 56.1387934 -0.0824971 56.66934491 4.328125 58.43359375 C7.20683977 61.38252107 7.34659372 62.10675906 7.515625 66.05859375 C7.31078787 69.53058305 7.07839975 70.7957091 5.015625 73.68359375 C2.890625 75.05859375 2.890625 75.05859375 0.890625 75.05859375 C0.890625 75.71859375 0.890625 76.37859375 0.890625 77.05859375 C-11.02533793 82.68501807 -22.68952947 84.25527273 -35.4921875 80.15234375 C-49.44719638 74.32039974 -58.43324054 63.88403555 -64.109375 50.05859375 C-67.62573735 39.5738304 -65.25225117 26.65198211 -60.6328125 16.9609375 C-54.76399412 6.14784062 -47.20415613 0.19251421 -36.109375 -4.94140625 C-24.07308087 -8.45525985 -10.47788413 -6.542096 0 0 Z " fill="#FBFBFC" transform="translate(361.109375,564.94140625)"/>
<path d="M0 0 C4.26697662 0.89308813 6.22982587 4.1248672 8.6875 7.5625 C10.09662096 10.38074192 9.79933553 12.73501282 9.78515625 15.8828125 C9.78193359 17.13964844 9.77871094 18.39648438 9.77539062 19.69140625 C9.76282227 21.66947266 9.76282227 21.66947266 9.75 23.6875 C9.74498489 25.02734211 9.74042201 26.367186 9.73632812 27.70703125 C9.72451086 30.99223206 9.70803617 34.27734397 9.6875 37.5625 C10.30270508 37.54155273 10.91791016 37.52060547 11.55175781 37.49902344 C14.34683809 37.41572983 17.14165715 37.36379987 19.9375 37.3125 C21.38962891 37.26222656 21.38962891 37.26222656 22.87109375 37.2109375 C29.99374884 37.11269398 29.99374884 37.11269398 33.3203125 39.26953125 C34.88011374 41.88554076 35.28442413 43.46312698 35.3125 46.5 C35.36277344 47.75103516 35.36277344 47.75103516 35.4140625 49.02734375 C34.54196099 52.07032161 33.13721827 53.69888488 30.62158203 55.60522461 C26.85151085 57.47122424 22.92302491 57.07619286 18.8125 56.875 C17.93335938 56.85244141 17.05421875 56.82988281 16.1484375 56.80664062 C13.99404993 56.74809748 11.8405469 56.65842783 9.6875 56.5625 C9.80654105 61.40069585 9.93083466 66.23871904 10.05981445 71.07666016 C10.10289494 72.71952734 10.14458657 74.36243159 10.18481445 76.00537109 C10.24317485 78.37869397 10.30667275 80.75183479 10.37109375 83.125 C10.38780624 83.84929199 10.40451874 84.57358398 10.42173767 85.31982422 C10.55865105 90.12579158 10.91025636 94.81358374 11.6875 99.5625 C13.29866531 101.03712432 13.29866531 101.03712432 15.6875 101.5625 C29.66397059 107.51544118 29.66397059 107.51544118 31.6875 111.5625 C32.25670689 115.9535246 31.97765343 118.04022383 29.8125 121.9375 C27.6875 124.5625 27.6875 124.5625 25.6875 125.5625 C16.51249446 126.36531298 8.27537976 126.38177621 0.6875 120.5625 C-6.3613932 113.9502639 -10.20359016 103.9958726 -10.71459961 94.47607422 C-10.86332333 88.73134589 -10.75054116 82.99410015 -10.625 77.25 C-10.59986802 75.23765813 -10.57706357 73.22528579 -10.55664062 71.21289062 C-10.50207498 66.32866181 -10.41607718 61.4459252 -10.3125 56.5625 C-11.40820312 56.61148438 -12.50390625 56.66046875 -13.6328125 56.7109375 C-17.3125 56.5625 -17.3125 56.5625 -20.1875 54.1875 C-23.47337102 50.12848286 -23.75677743 47.80497372 -23.3125 42.5625 C-21.51687595 39.80920979 -20.25995078 38.03622539 -17.3125 36.5625 C-14.9795134 36.52227609 -12.64543334 36.51929753 -10.3125 36.5625 C-10.33868408 35.81677734 -10.36486816 35.07105469 -10.3918457 34.30273438 C-10.49645551 30.88954142 -10.56102969 27.47668672 -10.625 24.0625 C-10.66689453 22.88945313 -10.70878906 21.71640625 -10.75195312 20.5078125 C-10.85308621 13.3071371 -10.38206932 7.98203604 -5.3125 2.5625 C-2.3125 0.5625 -2.3125 0.5625 0 0 Z " fill="#FDFDFD" transform="translate(259.3125,520.4375)"/>
<path d="M0 0 C3.89565392 3.08760344 5.55129958 4.93855504 6.3515625 9.91796875 C5.7890625 13.41796875 5.7890625 13.41796875 3.953125 16.1328125 C-0.73265225 19.51698496 -4.78779542 18.81345517 -10.3984375 18.48046875 C-19.06920124 17.9896708 -27.24370186 18.12646684 -34.15454102 24.09716797 C-39.58079618 29.79154398 -40.60861584 36.27574201 -40.48046875 43.91796875 C-40.06647918 47.75787202 -38.7059126 50.86740288 -37.2109375 54.41796875 C-37.2109375 55.40796875 -37.2109375 56.39796875 -37.2109375 57.41796875 C-36.6334375 57.68609375 -36.0559375 57.95421875 -35.4609375 58.23046875 C-33.2109375 59.41796875 -33.2109375 59.41796875 -31.2109375 60.98046875 C-27.50178198 63.64642428 -24.02228756 63.50709487 -19.5625 63.33984375 C-18.47453125 63.3140625 -17.3865625 63.28828125 -16.265625 63.26171875 C-13.98649159 63.19941898 -11.7077317 63.12139145 -9.4296875 63.02734375 C-0.11953922 62.8512653 -0.11953922 62.8512653 3.5078125 65.75 C6.16957368 68.8629844 6.95622412 70.32250911 6.7890625 74.41796875 C4.50887837 79.37489077 1.64198347 81.41569784 -3.11328125 83.65625 C-13.3342022 87.36775761 -27.08081833 86.8666213 -36.9453125 82.5546875 C-37.69296875 82.17957031 -38.440625 81.80445313 -39.2109375 81.41796875 C-39.89671875 81.09441406 -40.5825 80.77085937 -41.2890625 80.4375 C-45.27221899 78.38734593 -47.59463368 75.99358397 -50.2109375 72.41796875 C-51.00757813 71.67546875 -51.80421875 70.93296875 -52.625 70.16796875 C-55.41691982 67.19891807 -56.8244897 64.57192783 -58.4609375 60.85546875 C-58.96109375 59.74042969 -59.46125 58.62539063 -59.9765625 57.4765625 C-63.89586604 47.76512367 -63.97407551 34.09965083 -60.5859375 24.23046875 C-58.41953449 19.34058767 -55.71831953 14.47651081 -52.2109375 10.41796875 C-51.5509375 10.41796875 -50.8909375 10.41796875 -50.2109375 10.41796875 C-50.2109375 9.42796875 -50.2109375 8.43796875 -50.2109375 7.41796875 C-37.34854046 -3.30484193 -15.22754687 -9.60465412 0 0 Z " fill="#FBFBFC" transform="translate(606.2109375,561.58203125)"/>
<path d="M0 0 C0 0.66 0 1.32 0 2 C0.66 2 1.32 2 2 2 C3.3899408 4.7798816 3.18488204 6.9186326 3 10 C1.79293121 13.34265205 1.07943151 13.94704566 -2 16 C-4.50854492 16.16357422 -4.50854492 16.16357422 -7.48046875 16.0546875 C-8.56263672 16.03019531 -9.64480469 16.00570312 -10.75976562 15.98046875 C-13.02566485 15.91074877 -15.29132653 15.83276664 -17.55664062 15.74609375 C-23.61890689 15.62405879 -28.07885733 15.80095977 -33.30981445 19.03173828 C-35 20 -35 20 -37.15234375 20.50366211 C-38.06693359 20.74934937 -38.06693359 20.74934937 -39 21 C-40.10309559 23.01322646 -40.10309559 23.01322646 -40.6875 25.4375 C-41.99622642 29.99245283 -41.99622642 29.99245283 -43 32 C-43.71824186 40.85371221 -42.82430998 48.18821263 -38.3125 55.875 C-30.88031749 62.70457312 -20.69676391 61.41416315 -11.29101562 61.3515625 C-1.75463065 61.48317448 -1.75463065 61.48317448 1.26953125 64.3515625 C3.39927817 67.61108487 3.63762462 69.17425231 3 73 C1.20291982 77.71733547 -1.69430621 79.18448999 -6.0625 81.203125 C-15.43752894 85.05898368 -29.40662157 84.63364841 -38.75 80.9375 C-51.98446741 74.22600371 -59.40352042 64.65960192 -64.08203125 50.79296875 C-67.44826827 36.88396388 -65.27086194 23.43310592 -57.875 11.25 C-56 9 -56 9 -53 8 C-51.79117904 5.99983534 -51.79117904 5.99983534 -51 4 C-50.34 4 -49.68 4 -49 4 C-48.67 3.01 -48.34 2.02 -48 1 C-33.53236924 -7.56870222 -14.54968328 -9.69978885 0 0 Z " fill="#FCFCFC" transform="translate(450,564)"/>
<path d="M0 0 C1.32407554 0.81481572 2.64108701 1.64185429 3.9375 2.5 C3.9375 3.16 3.9375 3.82 3.9375 4.5 C5.05125 4.7475 5.05125 4.7475 6.1875 5 C10.3024001 7.24449096 11.62693342 10.07070545 12.9375 14.5 C14.00593398 22.35676704 13.13924372 29.68540725 8.9375 36.5 C4.08043891 42.17886319 -0.7427163 44.89285077 -8.21875 45.74609375 C-13.99865038 46.07269771 -18.3681999 44.92272797 -23.0625 41.5 C-28.48841347 36.38942018 -33.10474432 30.88081122 -33.4375 23.1875 C-33.10238234 15.19829505 -30.60229635 9.04477515 -25.078125 3.23046875 C-17.56108309 -3.22311568 -8.71826003 -4.7889034 0 0 Z " fill="#2B2E5E" transform="translate(665.0625,581.5)"/>
<path d="M0 0 C6.38047516 3.27646022 10.59199113 8.17221926 12.87890625 14.96484375 C13.95860929 23.17058687 13.61714728 30.06054968 8.87890625 36.96484375 C7.88890625 37.29484375 6.89890625 37.62484375 5.87890625 37.96484375 C5.20575931 39.29491722 4.53953753 40.62850976 3.87890625 41.96484375 C-0.93668179 45.87524606 -6.38913984 46.58637962 -12.42578125 46.359375 C-16.41497649 45.77544932 -19.95077211 44.4994057 -23.12109375 41.96484375 C-23.61609375 40.47984375 -23.61609375 40.47984375 -24.12109375 38.96484375 C-25.11109375 38.96484375 -26.10109375 38.96484375 -27.12109375 38.96484375 C-32.22676695 32.40040678 -33.02747799 25.79143475 -32.60546875 17.72265625 C-31.957786 12.69789169 -30.61784257 9.59042016 -27.12109375 5.96484375 C-26.651875 5.47757813 -26.18265625 4.9903125 -25.69921875 4.48828125 C-18.11740009 -2.48210042 -9.2807663 -3.94114733 0 0 Z " fill="#2B2E5E" transform="translate(758.12109375,580.03515625)"/>
<path d="M0 0 C0.99 0.66 1.98 1.32 3 2 C3 2.66 3 3.32 3 4 C3.61359375 4.26296875 4.2271875 4.5259375 4.859375 4.796875 C8.54407465 6.86783757 9.85874678 10.1104227 11 14 C11.80890994 20.95662548 12.12764537 28.08926122 8.40234375 34.25390625 C3.8915768 39.87037652 -1.28263512 44.39358239 -8.61328125 45.3359375 C-16.1797451 45.4454377 -21.39193787 44.41553707 -26.9765625 39.12890625 C-33.10097482 32.46262206 -34.48782478 27.24725438 -34.3046875 18.22265625 C-33.67530755 11.56575292 -31.00371406 7.68575041 -26.1875 3.1875 C-17.78244584 -3.62993282 -9.82990488 -4.65852014 0 0 Z " fill="#2A2E5D" transform="translate(853,581)"/>
<path d="M0 0 C2.5 1.5625 2.5 1.5625 4 4 C4.63339504 8.97667533 4.05383902 12.00651821 1 16 C-1.85324437 17.42662219 -3.83454549 17.31033868 -7 17 C-9.875 15.625 -9.875 15.625 -12 13 C-12.41773821 9.62636739 -12.2903408 6.3808573 -12 3 C-11.34 3 -10.68 3 -10 3 C-10 2.34 -10 1.68 -10 1 C-6.79419594 -0.60290203 -3.47817686 -0.48117071 0 0 Z " fill="#FAFAFB" transform="translate(904,626)"/>
<path d="M0 0 C0.33 2.31 0.66 4.62 1 7 C0.01 7.33 -0.98 7.66 -2 8 C-2.33 5.69 -2.66 3.38 -3 1 C-1 0 -1 0 0 0 Z " fill="#484B74" transform="translate(320,603)"/>
</svg>
